<?xml version="1.0" encoding="UTF-8"?>
<!DOCTYPE svg PUBLIC "-//W3C//DTD SVG 1.1//EN" "http://www.w3.org/Graphics/SVG/1.1/DTD/svg11.dtd">
<!-- Creator: CorelDRAW X8 -->
<svg xmlns="http://www.w3.org/2000/svg" xml:space="preserve" width="8.75in" height="8.75in" version="1.1" style="shape-rendering:geometricPrecision; text-rendering:geometricPrecision; image-rendering:optimizeQuality; fill-rule:evenodd; clip-rule:evenodd"
viewBox="0 0 2792 2792"
 xmlns:xlink="http://www.w3.org/1999/xlink"
 enable-background="new 0 0 222.875 222.875">
 <defs>
  <style type="text/css">
   <![CDATA[
    .str0 {stroke:#145D99;stroke-width:110.776}
    .fil0 {fill:none}
    .fil1 {fill:#145D99}
   ]]>
  </style>
 </defs>
 <g id="Camada_x0020_1">
  <metadata id="CorelCorpID_0Corel-Layer"/>
  <circle class="fil0 str0" cx="1396" cy="1396" r="1340"/>
  <g id="_2432012964784">
   <path class="fil1" d="M1949 1900l-100 -357c-7,-27 -35,-42 -61,-35l-99 28c27,-57 49,-115 66,-171 1,-2 2,-4 2,-6 4,-15 8,-30 12,-44l173 -49 89 306c3,13 12,23 23,29 11,7 25,9 39,5 26,-8 42,-36 34,-62l-102 -353c-8,-27 -36,-42 -62,-35l-174 49c0,-6 1,-12 1,-17 8,-95 -6,-173 -39,-229l96 -27 397 224c24,13 55,5 68,-19 14,-24 5,-55 -19,-68l-415 -234c-12,-7 -25,-8 -38,-5l-149 42 -42 -149c-3,-13 -12,-24 -23,-30l-415 -234c-24,-14 -55,-5 -69,19 -13,24 -5,55 19,68l398 224 26 96c-65,0 -139,29 -216,84 -4,4 -9,7 -14,11l-48 -174c-8,-27 -35,-42 -62,-35l-355 95c-26,7 -42,35 -35,62 4,13 13,24 24,30 11,6 24,9 37,5l307 -83 49 173c-12,12 -24,24 -35,37 0,0 0,1 -1,1 -39,43 -77,92 -112,146l-28 -99c-7,-27 -35,-42 -61,-35l-358 100c-26,7 -42,35 -34,62 3,13 12,24 23,30 11,6 25,8 38,5l309 -87 41 144c-40,77 -72,154 -93,229l-136 -76c-24,-14 -54,-5 -68,19l-129 229c-13,24 -5,54 19,68 24,13 55,5 69,-19l104 -185 118 66c-4,21 -6,41 -8,61 -12,146 27,251 110,298 0,0 0,0 0,0 0,0 0,0 0,0 0,0 0,0 0,0 82,46 193,25 311,-61 16,-11 32,-24 48,-38l118 67 -104 185c-14,24 -5,54 19,68 24,14 55,5 68,-19l129 -229c14,-24 5,-54 -19,-68l-136 -76c53,-58 104,-125 149,-199l143 -40 87 309c3,14 12,24 23,31 11,6 25,8 38,4 27,-7 43,-35 35,-62zm-317 -923c57,32 76,140 47,283 -1,3 -2,6 -2,9 0,1 -1,3 -1,4l-321 -180c1,-2 3,-3 4,-4 2,-1 4,-3 6,-5 107,-100 210,-139 267,-107l0 0zm-590 680c1,-2 1,-5 2,-8 19,-90 58,-194 118,-302 39,-68 81,-128 123,-179l138 78 -370 656c-28,-50 -33,-138 -11,-245zm98 294l370 -656 138 77c-22,63 -51,130 -90,198 -60,108 -129,195 -196,258 -2,2 -4,4 -6,6 -81,74 -158,115 -216,117z"/>
  </g>
 </g>
</svg>
