<?xml version="1.0" encoding="UTF-8"?>
<!DOCTYPE svg PUBLIC "-//W3C//DTD SVG 1.1//EN" "http://www.w3.org/Graphics/SVG/1.1/DTD/svg11.dtd">
<!-- Creator: CorelDRAW X8 -->
<svg xmlns="http://www.w3.org/2000/svg" xml:space="preserve" width="840px" height="840px" version="1.1" style="shape-rendering:geometricPrecision; text-rendering:geometricPrecision; image-rendering:optimizeQuality; fill-rule:evenodd; clip-rule:evenodd"
viewBox="0 0 756 756"
 xmlns:xlink="http://www.w3.org/1999/xlink"
 enable-background="new 0 0 52 52">
 <defs>
  <style type="text/css">
   <![CDATA[
    .str0 {stroke:#145D99;stroke-width:29.9998}
    .fil0 {fill:none}
    .fil1 {fill:#145D99}
   ]]>
  </style>
 </defs>
 <g id="Camada_x0020_1">
  <metadata id="CorelCorpID_0Corel-Layer"/>
  <circle class="fil0 str0" cx="378" cy="378" r="363"/>
  <g id="_2215248298864">
   <g>
    <path class="fil1" d="M545 591c18,-43 8,-91 -25,-114 6,-10 11,-20 15,-30l5 -10c2,-4 4,-9 5,-13 32,-11 62,-39 84,-78l5 -8c3,-5 1,-11 -5,-14 -5,-3 -11,-1 -14,4l-5 7c-15,28 -36,50 -58,62 8,-47 -3,-94 -31,-132 0,0 0,0 1,0 6,-15 7,-30 4,-45l36 -14c6,-2 9,-8 6,-14 -2,-6 -8,-8 -14,-6l-36 13c-9,-17 -24,-31 -44,-40 -20,-10 -42,-11 -61,-6l-15 -38c-2,-6 -8,-9 -14,-7 -5,3 -8,9 -6,14l14 39c-12,7 -23,18 -29,32 0,1 0,1 0,2 -42,4 -82,23 -111,55 -5,-24 -2,-54 8,-83l3 -8c2,-6 -1,-12 -6,-14 -6,-2 -12,1 -14,6l-3 9c-15,40 -16,80 -4,111 -5,7 -9,15 -13,23l-3 7c-4,8 -8,17 -11,26 -38,-7 -78,16 -98,57l-11 22c-2,6 0,12 5,15 0,0 1,0 1,0 5,3 11,0 14,-5l11 -22c14,-31 44,-49 72,-46 -8,29 -12,58 -11,88 -16,1 -31,9 -41,23 -10,13 -14,30 -10,47 1,3 3,6 6,7 2,1 5,1 7,1 6,-1 10,-7 8,-13 -2,-10 0,-21 7,-29 6,-8 14,-13 24,-14 3,30 10,60 22,88 2,5 4,9 7,14 12,20 29,36 51,46 25,11 53,13 81,4 28,-9 54,-22 78,-38l3 4c6,8 9,19 6,29 -2,10 -8,19 -18,24 -5,3 -7,10 -4,15 1,2 3,4 5,5 3,1 7,1 10,-1 15,-8 25,-22 29,-38 3,-17 -1,-34 -11,-47l-3 -4c23,-18 43,-40 59,-64 24,18 31,55 17,87l-10 23c-2,6 0,12 6,14 0,0 0,0 0,0 6,3 12,0 14,-5l10 -23z"/>
   </g>
  </g>
 </g>
</svg>
