<?xml version="1.0" encoding="UTF-8"?>
<!DOCTYPE svg PUBLIC "-//W3C//DTD SVG 1.1//EN" "http://www.w3.org/Graphics/SVG/1.1/DTD/svg11.dtd">
<!-- Creator: CorelDRAW X8 -->
<svg xmlns="http://www.w3.org/2000/svg" xml:space="preserve" width="12.995in" height="12.9597in" version="1.1" style="shape-rendering:geometricPrecision; text-rendering:geometricPrecision; image-rendering:optimizeQuality; fill-rule:evenodd; clip-rule:evenodd"
viewBox="0 0 1966 1961"
 xmlns:xlink="http://www.w3.org/1999/xlink">
 <defs>
  <style type="text/css">
   <![CDATA[
    .fil1 {fill:#FEFEFE}
    .fil0 {fill:#145D99}
   ]]>
  </style>
 </defs>
 <g id="Camada_x0020_1">
  <metadata id="CorelCorpID_0Corel-Layer"/>
  <path class="fil0" d="M265 1627c-18,-13 -9,4 -11,-23l17 0c-7,13 -4,5 -6,23zm-63 -63c5,-6 21,7 7,3 0,0 -17,6 -7,-3zm-12 -12l0 6 -7 -5 7 -1zm0 0l0 -6 7 5 -7 1zm23 -29c14,5 14,-8 18,29 10,2 19,3 21,4 0,0 42,45 -17,28 -11,-3 -11,-1 -12,-11l-10 -50zm-29 -17l2 2c0,0 -2,-2 -2,-2zm42 -36l-1 7 -7 -5 8 -2zm-105 -27l2 1c0,0 -3,-1 -2,-1zm12 -41l1 2c0,0 -2,-1 -1,-2zm-23 -11l6 11 -6 -11zm17 -6c0,0 1,-26 11,11 -11,-3 -2,8 -12,-4 -17,-22 13,17 1,-7zm-17 6l-6 -6 6 6zm201 23c-7,-14 -10,-15 -11,-35l17 12c2,-23 -3,-18 17,-23 -2,22 -9,35 -23,46zm-201 -46l5 0 -5 6 0 -6zm213 -18l12 11c-29,-7 -4,0 -12,-11zm23 -11l2 1c-1,0 -3,-1 -2,-1zm213 -12c6,-5 21,8 7,3 0,0 -17,7 -7,-3zm-219 -6l2 2c0,0 -3,-1 -2,-2zm213 -17l2 2c0,0 -2,-1 -2,-2zm-5 -11l5 0 -5 6 0 -6zm0 0l-6 0 5 -7 1 7zm-462 -6l2 2c0,0 -2,-2 -2,-2zm145 2c39,-2 39,-3 74,9l18 -11 3 32c-8,9 -2,3 -9,8 7,17 9,7 -6,18l0 -19c0,2 -2,2 -3,3 -5,19 5,-8 -8,7 -16,-9 -13,-12 -29,-10 8,34 17,7 17,47l-6 0c0,-22 1,-18 -17,-23 1,17 11,40 17,52 -17,-7 -30,-45 -40,-63l-6 -2 -12 5c-4,31 -6,57 18,73l6 -2 6 0c8,-9 14,6 17,18l11 6 3 23c11,18 38,0 47,-8 17,-18 10,-37 18,-57 1,0 14,-12 26,2 2,3 25,68 -43,102 -47,25 -77,-4 -107,-29 -5,-10 8,-4 -13,-11 -8,1 -6,3 -3,-5 -9,-25 -28,-57 -27,-86 0,-39 22,-55 38,-75l-9 -11c20,4 4,-3 19,7zm-29 -19c5,-6 21,7 7,3 0,0 -17,6 -7,-3zm-12 -18l13 11c-16,-3 -8,3 -13,-11zm104 -5c13,8 7,0 11,17 -22,-16 -2,0 -11,-17zm-87 0l12 0 -10 12 -2 -12zm-23 -12l12 0c-2,11 -1,10 -6,17 -6,-6 -6,10 -6,-17zm116 -6c0,-13 9,-2 3,0 0,0 -3,17 -3,0zm-93 18l-8 -9c-1,-1 -2,-2 -3,-3l11 -7 0 19zm289 -35c0,-14 9,-2 3,0 0,0 -3,17 -3,0zm-124 46c10,0 10,-3 5,6 4,9 7,14 12,20l14 14 75 -44 26 37c-27,30 -64,33 -81,53l25 41c24,-7 68,-36 88,-48 15,10 21,16 25,36l-117 67c-30,-19 -117,-166 -131,-193l8 1c1,-37 0,-14 37,-41 1,-1 3,-3 4,-3 1,-1 2,-2 3,-4 2,-8 -1,-8 4,1 34,-12 37,-35 71,-32l22 35c-21,12 -30,15 -48,24l-42 30zm-90 -69c15,10 13,8 18,29 -20,-7 5,7 -8,-4 -33,-26 -8,-11 -10,-25zm485 0l5 0 -4 7 -1 -7zm-456 -6c18,4 19,8 35,0 -5,14 14,16 -35,12l0 -12zm456 6l-6 0 5 -7 1 7zm-300 -29l13 10c-30,-6 -5,1 -13,-10zm-81 0l-6 0 6 0zm-6 0l-5 0 4 -7 1 7zm461 -11l2 1c0,0 -2,-1 -2,-1zm-495 -6l6 0 -5 7 -1 -7zm0 0l-6 -6 6 6zm374 -23c0,-14 10,-3 4,0 0,0 -4,16 -4,0zm110 -23l0 5 -7 -4 7 -1zm0 0l0 -6 7 5 -7 1zm-369 11c-8,-14 -14,-34 7,-30 14,3 -5,9 28,1l0 12c-26,2 -17,4 -35,17zm121 -46l-6 0 5 -7 1 7zm-104 -6c21,6 13,3 23,18 -27,-3 -9,8 -23,-18zm64 -40l6 0c13,-9 6,-7 23,-12 6,12 8,14 11,29 -10,19 -7,21 -34,23l0 23 11 0 0 9c22,0 2,4 23,-5l0 -4 -12 -3 12 -2 0 -12 6 12c8,0 6,-2 6,8 48,12 75,34 66,95l14 29 6 6 8 6c13,13 23,18 37,34 -14,16 -6,15 -28,22 -19,3 -7,2 -11,-4l-75 -54c-13,8 -13,9 -26,19 5,44 38,47 42,86 -10,7 -13,11 -30,13 -24,-42 -56,-102 -86,-143 -50,-69 3,-61 28,-89 -21,-7 -15,-6 -15,-34l-5 6c-5,2 -3,2 -12,5 -2,-29 -4,-7 -11,-34 13,-9 11,-11 34,-12 6,21 1,8 6,6 3,-6 8,3 -6,-17l12 -6zm40 -6c6,-5 21,8 7,3 0,0 -17,7 -7,-3zm150 129c-12,1 -6,2 2,-2 14,-10 2,-2 9,-12l-46 -66c-22,7 -29,19 -57,29 -10,-11 -12,-13 -20,-26 12,-20 37,-28 66,-46 39,-24 41,-24 75,-55 15,10 17,16 23,32l-25 21c-15,8 -16,11 -28,17 14,43 94,141 106,176l-34 18c-13,-28 -16,-27 -28,-45 -10,-15 -13,-26 -26,-43l-17 2zm473 -186l1 1c0,0 -2,-1 -1,-1zm-336 88c-11,-20 -23,-31 -34,-48 -8,-11 -23,-37 -29,-52 11,-13 14,-14 35,-18 25,35 47,67 64,98 14,24 13,28 32,50 10,11 19,33 25,50 -11,7 -14,9 -28,13 -20,-11 -48,-60 -65,-93zm514 -106l6 0 -5 7 -1 -7zm-34 0l1 2c0,0 -2,-1 -1,-2zm34 -5l0 5 0 -5zm-29 0c9,-13 1,-8 18,-12 -13,18 -1,4 -18,12zm-11 -12l2 2c0,0 -3,-1 -2,-2zm40 12c-1,-16 0,-13 -6,-23 17,4 9,-1 18,11l-12 12zm-34 -23l1 1c0,0 -2,-1 -1,-1zm98 -6c0,-14 9,-3 3,0 0,0 -3,16 -3,0zm-75 -12l1 2c0,0 -2,-1 -1,-2zm-306 -11l0 17 -6 0c0,-30 1,-9 6,-17zm-40 0c18,13 9,-4 11,23 -3,-5 -4,-2 -7,-10 -5,-10 -2,-9 -4,-13zm46 -6l-6 6 6 -6zm427 -6l0 6 -7 -5 7 -1zm-439 -6l0 6 -6 -5 6 -1zm12 12l0 -12 -12 0 0 -11c10,2 12,-2 16,8 8,19 -4,15 -4,15zm-23 48c8,2 8,-1 1,4l10 31c-32,17 -42,26 -67,44 12,24 38,58 44,81l-28 16c-16,-17 -116,-176 -120,-196 54,-26 51,-42 120,-75 16,15 16,10 20,37 -29,9 -62,38 -91,50 11,20 21,33 29,51 10,-4 53,-36 65,-46l17 3zm179 -71c0,-14 9,-2 3,0 0,0 -3,16 -3,0zm247 -6l2 2c0,0 -2,-1 -2,-2zm-23 -11c18,4 13,0 18,17 -25,-13 -11,1 -18,-17zm0 0l-5 0 4 -7 1 7zm139 -18l1 2c0,0 -2,-1 -1,-2zm-6 -5l-6 5 6 -5zm0 0l0 -6 0 6zm-456 41c7,12 7,11 16,24l58 96c-11,10 -15,14 -33,17 -12,-11 -117,-174 -122,-198l36 -14c3,8 8,17 13,26l32 49zm-213 -47l2 1c0,0 -2,-1 -2,-1zm698 -6l1 2c0,0 -2,-1 -1,-2zm-29 6l-6 0 5 -7 1 7zm11 -12l6 0 -5 7 -1 -7zm29 -6c0,-13 10,-2 4,0 0,1 -4,17 -4,0zm-34 -5l5 11 -5 -11zm-18 5l2 2c0,0 -2,-1 -2,-2zm-23 -17l0 0zm41 12l-6 0 5 -7 1 7zm-29 -6l2 2c0,0 -3,-1 -2,-2zm-12 -6l-7 1c7,-9 2,-10 7,-1zm110 -29c2,32 15,20 -6,35l-2 -5c-5,-30 -3,-23 8,-30zm-321 67c14,127 -92,158 -164,61 -61,-82 -18,-160 37,-166l37 5c13,3 21,11 28,17l-15 27c-21,-5 -18,-18 -45,-12 -80,17 -1,163 58,141 33,-12 24,-43 39,-73l25 0zm171 -78l2 2c0,-1 -3,-2 -2,-2zm12 -6l1 2c0,0 -2,-1 -1,-2zm-6 -11c0,-14 9,-3 4,0 -1,0 -4,16 -4,0zm-185 0l2 1c0,0 -2,-1 -2,-1zm-52 -6l2 1c0,0 -2,-1 -2,-1zm41 -18c13,9 7,1 11,18l-11 0 0 -18zm-271 12l6 0 -5 7 -1 -7zm715 -6l1 2c0,0 -2,-1 -1,-2zm-531 0c6,-5 21,8 7,3 0,0 -16,7 -7,-3zm-46 -6l2 2c0,0 -2,-1 -2,-2zm46 -5l2 1c0,0 -2,-1 -2,-1zm554 -12c33,4 3,-1 20,7 13,6 2,-7 14,10 -27,0 -23,1 -34,-17zm-536 0l1 2c0,0 -2,-1 -1,-2zm559 -23l6 11 -6 -11zm-600 6l6 0 -5 7 -1 -7zm0 0l-5 0 4 -7 1 7zm600 -6l-6 -6 6 6zm98 -46l1 2c0,0 -2,-1 -1,-2zm-58 -6l2 2c0,0 -2,-1 -2,-2zm35 6c9,-13 1,-7 17,-11 -13,18 -1,4 -17,11zm-582 -11l1 1c0,0 -2,-1 -1,-1zm150 -52c4,-9 0,-10 5,0l29 -22c18,-5 12,-1 22,-13 7,-9 2,-8 7,0 28,-5 36,-13 64,0 30,14 59,48 71,78 22,54 6,16 26,43 -12,18 -11,32 -20,56 -7,19 -19,16 -32,36 8,6 6,-9 6,12l-11 -9c-22,7 -32,13 -42,26l1 12c-12,0 0,1 -6,-9l-15 1c-14,-22 -15,-18 -27,-42 -7,-13 -19,-28 -27,-37l-5 -6c-7,-4 -8,8 -5,-11l-30 -49c-6,-1 -10,3 -1,-3l-7 -17c-11,-15 -12,-12 -15,-37l12 -9zm11 -46c8,-5 6,-3 17,-6 2,16 3,16 6,30l-17 -2 -6 -22zm374 80l7 11 -12 -6 -22 30c5,11 -1,21 -7,34 -8,4 -15,5 -24,3 -13,-2 -11,-2 -16,-17 -62,-10 -90,-35 -113,-80 -47,-94 15,-171 86,-150 41,13 79,51 93,91 14,38 9,45 8,84zm-374 -80l-6 0 5 -7 1 7zm121 -93l6 0 -5 7 -1 -7zm0 0l-6 0 5 -6 1 6zm-536 300c-19,4 -64,33 -82,45 -163,103 -356,210 -512,312 -28,19 -15,6 -28,35 0,0 2,0 2,1l8 2c18,11 17,30 30,55l-23 -7c6,16 6,3 0,18l-18 -17c-8,-7 -10,-8 -23,-12 10,-22 -4,-13 18,-46 -32,3 -22,11 -46,17 0,15 -3,16 7,27l7 6c0,0 2,1 3,2l13 10c-6,9 -5,8 -7,19l-12 -6 0 -11c-17,-8 -1,-3 -29,0 -4,-23 -4,-7 0,-29 -17,4 -12,0 -17,17l-11 0 11 17 13 11c-18,5 -10,0 -19,12 -7,-4 -6,-3 -17,-5l-6 11 -17 -17c-18,0 -21,2 -35,6 -8,17 -6,18 -17,34 18,7 8,-12 12,17 31,-2 19,-14 34,6 -14,19 -6,7 -29,18 -6,-16 12,-11 -23,-12 5,-10 10,-14 -11,-35 -23,6 -35,13 -41,35l-11 -6c-17,9 -26,19 -46,23l8 9c2,8 6,3 -1,10 -13,13 -29,-20 -59,22 15,22 9,21 35,34l-6 12c-9,12 -1,7 -18,11l0 12 23 -7 1 13 -12 0c4,15 0,4 6,17 -10,4 -3,1 -12,3l-9 2c0,0 -2,0 -2,1 4,20 65,116 77,136 14,23 27,40 40,63 11,20 29,55 44,66 13,-9 12,-11 27,-20l98 -57c21,-15 114,-61 123,-85 -13,-8 -8,0 -12,-17 35,1 17,-4 23,12 20,-2 16,-2 31,-11l801 -489c52,-18 30,-35 27,-42 25,2 11,-1 29,11 12,-18 9,-4 12,-28l5 5c5,3 3,3 12,6l72 -49c9,-5 9,-2 20,-9l39 -24c9,-5 13,-8 19,-16l-7 -23c-21,5 -2,12 -45,-19l-12 -2 -11 4 6 -6 -28 -36c-23,2 -7,-1 -13,7 12,18 22,50 42,62l4 2c3,13 5,13 6,28l-11 6 0 -17 -54 -51 2 -26 -36 19c0,31 6,33 12,58 -17,14 -17,17 -41,18 -11,-46 -28,-94 -37,-141 -11,-53 -42,-106 9,-124 40,14 82,78 121,102 5,-7 2,-7 6,1l14 3c1,1 3,2 4,2l6 6c0,1 2,2 2,3 1,1 2,2 3,3l-15 0c10,11 14,24 20,30 7,7 22,13 28,17l-3 16c7,6 6,2 -1,6 3,11 1,9 6,18l23 -12c4,8 3,6 5,17l6 0 -6 6c8,27 5,15 16,12l21 -9c18,-12 33,-22 50,-32 35,-20 69,-42 104,-63 48,-29 100,-57 144,-92l4 -3c1,0 8,-1 9,-2l44 -24 -75 -127c-19,-32 -121,-194 -126,-213 -34,3 -80,43 -112,61 -14,8 -21,13 -36,22l-219 132c-26,16 -46,30 -71,44l-108 66c-37,25 -28,7 -31,32 -16,-7 -18,-3 -33,7 -14,9 -21,14 -36,22l-69 46z"/>
  <path class="fil0" d="M63 1223l23 -6c-4,13 10,7 -9,15 -13,5 -7,0 -14,-9zm-5 -28c0,-1 1,1 1,1l0 0c0,0 -2,-1 -1,-1zm-23 -29l1 2c0,-1 -2,-2 -1,-2zm21 -168c-2,16 4,7 -10,12l10 -12zm13 -311c13,9 7,1 12,18l-18 0c3,-11 1,-10 6,-18zm98 -178l2 2c0,-1 -2,-2 -2,-2zm-6 -17c6,-6 21,7 7,3 0,0 -16,6 -7,-3zm23 -29l2 1c0,0 -2,-1 -2,-1zm18 -35c-2,6 -1,23 -12,12 -1,-3 -15,5 0,-7 12,-10 0,-1 12,-5zm1418 -161l1 1c0,0 -2,-1 -1,-1zm-12 -23l7 11 -7 -11zm0 0l-6 0 5 -7 1 7zm-52 -41l-11 7 11 -7zm-46 -34l2 1c0,0 -3,-1 -2,-1zm-1014 -12l10 -12c-3,16 3,7 -10,12zm17 -17c0,-14 9,-2 4,0 0,0 -4,17 -4,0zm888 -6l1 2c0,0 -2,-1 -1,-2zm-877 -6c18,5 13,0 18,18 -24,-7 -10,-3 -18,-18zm726 -62c15,3 8,-3 12,11l-12 -11zm-391 -18l1 1c0,0 -2,-1 -1,-1zm-363 109l-5 7c-15,-10 -7,-8 -24,-13 -100,67 -141,98 -218,186l-37 44c-11,12 -26,31 -35,46 -7,12 -7,17 -12,27 -6,11 -13,15 -21,26 28,-6 12,-11 17,6 -25,0 -18,-5 -29,11l-42 85c-37,76 -59,172 -75,259l-15 158 17 0c-4,17 0,12 -17,17l58 213c0,15 1,14 5,23 65,-43 18,-33 6,-190 -14,-198 25,-357 112,-523 8,-15 9,-14 17,-28l17 -29c33,-43 34,-56 83,-107 22,-23 22,-36 69,-70 46,-34 50,-50 133,-103l59 -33c209,-106 466,-140 697,-63 10,4 22,8 34,12 64,16 96,41 139,62 18,9 14,0 32,15 32,28 60,39 94,68 11,9 14,11 25,20 13,10 14,15 28,24 29,-7 23,-16 52,-23 -8,-31 -64,-68 -92,-86l-12 5 0 -17c-108,-73 -226,-133 -358,-160 -77,-16 -105,-12 -153,-21 -133,-24 -410,43 -524,114 -15,10 -11,10 -31,15l6 23z"/>
  <path class="fil0" d="M905 1944l2 2c-1,0 -3,-1 -2,-2zm-17 -29l1 2c0,0 -2,-1 -1,-2zm-139 -17l2 2c0,-1 -2,-2 -2,-2zm-150 -29l6 0 -5 7 -1 -7zm0 0l-5 0 4 -7 1 7zm911 -109c0,-14 9,-3 4,0 0,0 -4,16 -4,0zm-1107 -24l2 2c0,0 -2,-1 -2,-2zm1251 -46c-18,4 -9,6 -23,0 -8,29 -14,17 -58,46 -20,-13 -10,-16 -28,-23 7,14 13,20 17,35 -24,5 -18,13 -35,6 -3,-8 9,-5 -5,-18 -2,1 -3,1 -4,3 -1,1 -3,1 -4,1 -15,5 -17,2 -34,12 -72,46 -121,70 -201,99l-95 26c-97,19 -224,29 -330,14 -27,-4 -73,-23 -99,-10 -7,-19 2,-9 -54,-27 -133,-44 -233,-106 -336,-194 -12,-10 -12,-13 -25,-22 -18,10 -33,19 -52,29 15,22 39,41 59,57 13,10 15,15 31,26 115,84 101,74 229,134 72,34 161,56 240,66 229,31 369,-8 557,-83 56,-23 218,-128 250,-177z"/>
  <path class="fil0" d="M403 1004l2 2c0,0 -2,-1 -2,-2zm18 -80l0 6 -7 -5 7 -1zm0 -29l1 2c0,0 -2,-1 -1,-2zm322 -438l6 0 -5 7 -1 -7zm18 -6c0,-13 9,-2 4,0 -1,0 -4,17 -4,0zm-18 6l-12 -3 12 3zm179 -23l2 2c0,0 -2,-2 -2,-2zm162 -12l1 2c0,0 -2,-1 -1,-2zm-185 0c0,-13 9,-2 4,0 0,0 -4,17 -4,0zm35 -28l1 1c0,0 -2,-1 -1,-1zm-513 530l0 -17c17,12 9,-4 11,23l18 0c1,-68 36,-163 72,-222 8,-13 9,-16 17,-29 24,-35 70,-83 102,-111l79 -53c47,-24 60,-34 118,-50 158,-44 293,-14 424,55 48,-25 32,-26 58,-28 -38,-57 -263,-123 -376,-108 -69,9 -82,9 -155,32 -29,9 -26,-1 -28,24 -27,-13 -12,1 -39,8 -10,3 0,-3 -17,5l-62 36c-37,25 -73,55 -100,90 -11,14 -19,19 -30,34 -48,65 -84,122 -106,210 -8,34 -18,71 -21,107l0 121 53 -28c17,-11 11,-51 11,-76 -15,-4 -6,4 -22,-14l-5 -6c0,-1 -1,-2 -2,-3z"/>
  <path class="fil0" d="M1925 1160c6,-6 21,8 7,3 0,0 -17,7 -7,-3zm23 -219l2 2c0,0 -3,-1 -2,-2zm-6 -34l2 1c0,0 -2,-1 -2,-1zm0 -18l2 2c0,0 -2,-1 -2,-2zm-17 -17c13,9 7,1 12,17l-12 0 0 -17zm12 -6l1 2c0,0 -2,-1 -1,-2zm-24 -6c0,-13 10,-2 4,0 0,0 -4,17 -4,0zm24 -34c8,14 -3,15 11,29l-23 0c4,-16 5,-17 12,-29zm0 0l-6 -6 6 6zm-6 -12l0 6c-31,1 -16,5 -41,0 0,44 12,81 12,127 0,23 0,46 0,69 0,34 -9,142 -22,174l-33 105c-34,98 -112,232 -183,302 -30,29 -20,29 -39,36 4,17 5,14 13,27 7,11 10,20 16,30 24,-8 56,-52 97,-99 43,-50 75,-107 107,-164 10,-18 18,-29 9,-48 21,-11 13,6 34,-52 40,-109 69,-251 65,-369 -1,-30 -4,-14 -8,-32 -3,-12 3,-15 2,-37 -1,-21 -10,-58 -12,-80 -8,4 -6,3 -17,5z"/>
  <path class="fil0" d="M1158 1529l2 2c0,0 -2,-1 -2,-2zm-184 0l2 2c0,0 -3,-1 -2,-2zm196 -6l2 2c0,0 -3,-1 -2,-2zm40 -11l0 5 -6 -4 6 -1zm0 0l0 -6 7 5 -7 1zm-17 -6l0 6 -7 -5 7 -1zm0 0l0 -6 7 5 -7 1zm17 -17c23,-11 27,2 29,5 -26,7 -15,13 -29,-5zm46 -12c7,5 10,2 9,10 -1,12 -7,11 -9,13 -5,-27 2,-11 0,-23zm-17 0l2 2c0,0 -2,-1 -2,-2zm40 -6l2 2c0,0 -2,-1 -2,-2zm77 -33c2,-16 -4,-8 10,-13l-10 13zm-2 -24l2 1c0,0 -2,-1 -2,-1zm-17 -6l2 2c0,0 -2,-1 -2,-2zm-40 63c-28,-19 0,-5 0,-23 0,-35 -34,-7 -73,14 -117,62 -280,75 -409,30 -20,-7 -25,-12 -43,-3 -5,-20 -10,-21 -34,-23 0,43 -3,21 -12,46 6,7 4,-7 6,17 61,14 116,52 236,52 35,0 74,3 104,-12 -7,-29 -15,-17 -17,-46 52,36 -25,75 140,20 47,-16 128,-64 168,-98l26 -25c1,-1 2,-2 3,-3 1,-1 2,-2 3,-3 14,-13 34,-22 40,-46l-29 0c-6,-32 8,-16 -17,-29 -9,6 -8,4 -16,13 -1,1 -4,5 -5,6l-5 6c-52,53 -20,23 -35,57l-9 9c-8,10 -19,28 -22,41z"/>
  <path class="fil0" d="M1562 1062l2 2c0,0 -3,-1 -2,-2zm6 -121l5 0 -4 7 -1 -7zm0 0l-29 -11 6 -23c-31,8 -23,20 -23,57 9,5 -11,6 17,0l-17 12c0,95 -17,167 -56,244 -28,55 -31,39 -25,67l-17 0 0 23c15,6 6,0 13,16l10 24c14,-4 10,1 21,-13l26 -43c10,-12 9,-10 16,-24 17,-34 33,-67 46,-105 6,-19 10,-38 15,-59 6,-29 5,-36 9,-67 3,-27 6,-30 3,-67 -2,-29 3,-22 -15,-48 17,-7 8,8 9,-15 1,-14 -7,0 2,-20 -21,5 -18,3 -29,18 4,14 10,20 18,34z"/>
  <path class="fil1" d="M479 1400c8,-17 5,-17 21,-26 -8,33 0,16 -21,26zm-110 -199l-4 -1c-1,2 -2,3 -3,4 -1,0 -3,2 -4,3 -37,27 -36,4 -37,41l-8 -1c14,27 101,174 131,193l117 -67c-4,-20 -10,-26 -25,-36 -20,12 -64,41 -88,48l-25 -41c17,-20 54,-23 81,-53l-26 -37 -75 44 -14 -14c-5,-6 -8,-11 -12,-20l-5 -6 42 -30c18,-9 27,-12 48,-24l-22 -35c-34,-3 -37,20 -71,32z"/>
  <path class="fil1" d="M1504 774l2 2c0,0 -2,-1 -2,-2zm-110 -81l12 10c13,8 1,-1 14,11 0,0 6,7 7,8 -3,11 0,6 -12,12 -9,12 -4,8 -22,11l-17 -74c16,10 12,5 18,22zm-48 -29c4,-2 -9,-20 12,0 -19,13 -5,3 -12,0zm101 108c4,-1 4,1 11,-4 6,-8 -10,-5 13,-7l28 36 5 2 12 2c10,-7 9,-6 23,-10l1 -6 3 -16c-6,-4 -21,-10 -28,-17 -6,-6 -10,-19 -20,-30 -12,-21 6,5 -5,-8 -2,-2 -9,-9 -9,-9l-6 -1c-39,-24 -81,-88 -121,-102 -51,18 -20,71 -9,124 9,47 26,95 37,141 24,-1 24,-4 41,-18 -6,-25 -12,-27 -12,-58l36 -19z"/>
  <path class="fil1" d="M1456 584c5,-16 2,-13 23,-15 4,40 14,10 19,38 -36,6 -20,9 -25,-25l-17 2zm43 -21c0,0 2,-1 11,3l-2 -11c4,-4 3,-4 10,-9l38 -11c35,7 132,132 15,154 -19,-34 -28,-26 -41,-67 -34,6 -17,1 -26,-2 -1,-11 -1,-4 0,-12 0,-1 3,-5 4,-6l-15 -23c-5,-30 -3,-7 6,-16zm17 -60l-7 0c-10,12 -4,8 -22,13l-29 22 -5 0 -12 9c3,25 4,22 15,37l7 17 1 3 30 49 5 11 5 6c8,9 20,24 27,37 12,24 13,20 27,42l15 -1 5 -3c10,-13 20,-19 42,-26l5 -3c13,-20 25,-17 32,-36 9,-24 8,-38 20,-56 -20,-27 -4,11 -26,-43 -12,-30 -41,-64 -71,-78 -28,-13 -36,-5 -64,0z"/>
  <path class="fil0" d="M265 445c28,-6 51,-36 67,-60 0,-1 2,-6 3,-8l81 -69c47,-37 76,-65 139,-97l85 -42c30,-14 66,-24 98,-34 156,-48 298,-44 455,-12l150 51c1,1 6,4 7,4l85 43c10,5 20,13 31,20 24,16 41,28 61,43 20,14 34,38 64,40 -12,-42 -201,-147 -252,-169 -215,-92 -466,-97 -686,-8l-94 45c-132,77 -133,81 -234,181l-60 72z"/>
  <path class="fil1" d="M599 1125c24,8 21,8 25,35 -12,21 -41,36 -59,40 -15,-17 -21,-22 -28,-47 14,-14 40,-29 62,-28zm-17 -42c-21,9 -1,5 -23,5 -12,13 -6,7 -20,14 -25,28 -78,20 -28,89 30,41 62,101 86,143 17,-2 20,-6 30,-13 -4,-39 -37,-42 -42,-86 13,-10 13,-11 26,-19l75 54 11 4c22,-7 14,-6 28,-22 -14,-16 -24,-21 -37,-34 -10,0 -8,3 -8,-6l-6 -6 -23 -6c3,-13 3,-12 9,-23 9,-61 -18,-83 -66,-95l-12 1z"/>
  <path class="fil1" d="M1675 437c17,5 -1,9 27,-1 64,-21 122,87 94,128 -42,60 -154,-21 -114,-120l-7 -7zm60 -29c14,6 16,-3 21,18 -26,2 -11,11 -21,-18zm-48 20c-28,-6 -9,-10 -9,-11 6,-2 4,-10 9,11zm77 199c21,-6 30,-12 47,-20l22 -30 5 -5c1,-39 6,-46 -8,-84 -14,-40 -52,-78 -93,-91 -71,-21 -133,56 -86,150 23,45 51,70 113,80z"/>
  <path class="fil0" d="M980 1881c121,0 209,-22 300,-52 47,-15 80,-32 121,-52 28,-15 95,-42 98,-75 -53,28 -82,53 -156,86 -168,76 -370,95 -551,56l-103 -30c-155,-61 -137,-63 -262,-147 0,25 0,19 15,31l86 58c132,76 280,125 452,125z"/>
  <path class="fil1" d="M231 1289l-10 4c-16,20 -38,36 -38,75 -1,29 18,61 27,86l3 5c21,7 8,1 13,11 30,25 60,54 107,29 68,-34 45,-99 43,-102 -12,-14 -25,-2 -26,-2 -8,20 -1,39 -18,57 -9,8 -36,26 -47,8 -18,-10 -9,-1 -20,-17l-16 -13c3,-7 2,-6 5,-17l-6 0c-5,8 -1,9 -6,2 -24,-16 -22,-42 -18,-73l12 -5c6,-6 2,-5 6,2 0,0 6,-7 9,-9 2,-2 8,-8 8,-9l12 5c16,-2 13,1 29,10 13,-15 3,12 8,-7 1,-1 3,-1 3,-3l6 1c-6,-14 -4,-4 0,-23l-12 -6c-35,-12 -35,-11 -74,-9z"/>
  <path class="fil1" d="M1025 1069c-7,18 4,8 -18,12 11,-14 -12,-4 18,-12zm25 -145l-1 -4 -17 -3c-12,10 -55,42 -65,46 -8,-18 -18,-31 -29,-51 29,-12 62,-41 91,-50 -4,-27 -4,-22 -20,-37 -69,33 -66,49 -120,75 4,20 104,179 120,196l28 -16c-6,-23 -32,-57 -44,-81 25,-18 35,-27 67,-44l-10 -31z"/>
  <path class="fil1" d="M1188 739c-5,-28 3,-24 27,-22l-27 22zm151 67l-25 0c-15,30 -6,61 -39,73 -59,22 -138,-124 -58,-141 27,-6 24,7 45,12l15 -27c-7,-6 -15,-14 -28,-17l-37 -5c-55,6 -98,84 -37,166 72,97 178,66 164,-61z"/>
  <path class="fil0" d="M715 1760c38,9 105,37 144,40 3,-16 6,-11 6,-23 0,-20 -104,-17 -104,-41 0,-13 2,-6 6,-23 25,14 53,23 92,23 3,-13 4,-13 6,-28 -83,-20 -89,-10 -81,-46l75 17c16,4 -1,5 23,0l0 -29 -127 -35 -40 116c-1,6 0,21 0,29z"/>
  <path class="fil0" d="M317 895c25,-109 48,-120 0,-121l-23 86c-15,-7 -6,-5 -29,-5l23 -87c-13,-3 -17,-5 -34,-6 -1,35 -15,51 -18,81l-29 0 21 -78c9,-23 6,8 8,-26 -15,-1 -15,-2 -29,-5 -15,29 -33,93 -33,126l-1 16c0,0 -39,12 47,15 18,1 -7,-1 11,0 36,2 49,13 86,4z"/>
  <path class="fil0" d="M1718 1200c0,-13 9,-2 3,0 0,0 -3,17 -3,0zm51 -17c-61,0 -44,-11 -86,-11 0,-86 43,-75 75,-75 7,19 -8,4 17,17l-6 69zm-121 12c21,10 106,40 133,40 10,-19 32,-95 27,-119 -8,-34 -16,-7 -16,-54 -35,3 -59,-19 -97,7 -16,10 -16,17 -23,34 -10,28 -23,55 -24,92z"/>
  <path class="fil0" d="M1608 1621c19,-5 62,-56 76,-74 86,-109 182,-302 189,-433 1,-23 3,-50 5,-59 6,-37 8,-27 3,-70 -2,-20 7,-29 0,-63 -4,-21 -6,-55 -8,-73 -6,-51 -19,-84 -29,-127 -12,9 -12,0 -10,21 1,2 9,31 9,32 18,71 37,249 19,322 -35,137 -35,199 -119,336 -26,43 -97,145 -135,171l0 17z"/>
  <path class="fil0" d="M1723 497c0,-13 10,-2 4,0 0,0 -4,17 -4,0zm-48 -60l7 7c-40,99 72,180 114,120 28,-41 -30,-149 -94,-128 -28,10 -10,6 -27,1z"/>
  <path class="fil0" d="M1706 947c0,-48 40,-52 52,-58 41,22 40,14 40,75 0,48 -92,62 -92,-17zm-6 -52c6,-6 21,8 7,3 0,0 -16,7 -7,-3zm121 109c4,-40 19,-105 -33,-145 -41,-31 -94,1 -107,63 -18,89 68,159 117,105 11,-12 8,-12 23,-23z"/>
  <path class="fil0" d="M1170 313c-19,-2 -35,-8 -52,-12 2,-27 12,-56 12,-86 83,2 85,57 61,84 -1,1 -2,2 -3,3 -7,6 -9,6 -18,11zm-75 -58c6,-5 21,8 7,3 0,0 -17,7 -7,-3zm-17 69c18,5 24,4 45,7 17,3 23,11 47,11 23,0 13,-5 31,-9 33,-8 13,17 25,-18 3,-11 58,-70 -33,-112 -29,-13 -58,-15 -92,-23 -21,31 -24,106 -23,144z"/>
  <path class="fil1" d="M770 1118c-14,-3 -3,6 -10,-13 15,10 8,-4 10,13zm-45 -108c4,-5 2,-4 14,-10 1,-1 14,-6 18,-8 -16,24 -7,27 -32,18zm9 127l-2 2 17 -2c13,17 16,28 26,43 12,18 15,17 28,45l34 -18c-12,-35 -92,-133 -106,-176 12,-6 13,-9 28,-17l25 -21c-6,-16 -8,-22 -23,-32 -34,31 -36,31 -75,55 -29,18 -54,26 -66,46 8,13 10,15 20,26 28,-10 35,-22 57,-29l46 66c-7,10 5,2 -9,12z"/>
  <path class="fil0" d="M1648 1298c21,5 19,6 46,6 -12,19 -9,4 -11,29 -16,-4 -16,-6 -35,-35zm104 -11l2 2c0,0 -2,-2 -2,-2zm-75 132l17 13c9,-14 19,-24 24,-41l-19 -23c4,-28 19,-43 30,-64l40 0c4,-13 15,-34 8,-41 -14,-13 2,-2 -16,2 -15,3 -3,0 -26,-1 -37,-2 -83,0 -121,0 -24,46 -4,43 18,79l45 76z"/>
  <path class="fil0" d="M1401 330c0,-14 9,-2 3,0 0,0 -3,17 -3,0zm-75 -40c73,0 87,98 11,98 -61,0 -77,-98 -11,-98zm-81 40c0,63 105,115 159,73 32,-24 25,-62 6,-94 -21,-37 -111,-77 -152,-24 -10,12 -13,25 -13,45z"/>
  <path class="fil0" d="M1020 1719l-69 0c0,-23 3,-21 12,-34 31,7 72,-1 57,34zm35 -40c-37,-20 -134,-33 -139,0l-5 81c-3,40 -17,40 34,40 7,-31 -4,-28 1,-46 5,-19 12,-9 12,-9l28 -3c46,88 80,58 71,39 -5,-12 -18,-22 -31,-27 11,-40 45,-6 29,-75z"/>
  <path class="fil0" d="M294 676c-15,-4 -17,-5 -29,-12 4,-14 8,-23 15,-36 11,-19 11,-21 37,-21 -1,43 -16,37 -23,69zm-63 6l56 35c45,20 76,34 76,5 0,-44 -71,6 -34,-63 69,0 73,-5 80,-35l-63 4 0 -44c-33,-22 -60,-27 -87,28 -9,19 -28,45 -28,70z"/>
  <path class="fil0" d="M86 947c0,71 -2,103 11,174 3,22 4,29 8,49 3,14 9,30 10,48 23,-6 16,-8 10,-32 -55,-222 -11,-491 117,-683 12,-18 24,-32 35,-52 -41,4 -88,112 -106,148 -6,13 -6,15 -12,29 -39,95 -73,196 -73,319z"/>
  <path class="fil0" d="M981 221c12,10 14,18 16,40l-29 0 13 -40zm-24 69l52 0c5,11 8,26 11,40 59,0 35,3 28,-45l-51 -116c-46,11 -50,21 -77,101 -10,30 -31,68 13,58 16,-3 5,-2 24,-38z"/>
  <path class="fil0" d="M663 1587l2 1c-1,0 -3,-1 -2,-1zm-64 34c13,-46 83,-23 87,23l34 0 -11 -29c-1,-1 -2,-2 -3,-3 -17,-22 -27,-29 -57,-41 -62,-25 -125,22 -94,89 15,31 9,22 36,38 35,21 87,38 112,4 -25,-38 -30,1 -80,-18 -30,-11 -46,-37 -24,-63z"/>
  <path class="fil0" d="M179 993l1 2c0,0 -2,-1 -1,-2zm69 40c-15,18 -42,-5 -52,-11 0,-88 -4,-43 23,-81 -10,-19 0,-11 -17,-23 -32,21 -41,66 -29,110 10,38 40,68 86,51 52,-19 74,-91 29,-150 -15,-20 -28,-24 -29,12 7,21 47,31 6,92l-17 0z"/>
  <path class="fil0" d="M1579 601l2 2c0,0 -2,-1 -2,-2zm-57 0c0,-14 9,-2 3,0 0,0 -3,17 -3,0zm11 -29l2 2c0,0 -2,-1 -2,-2zm23 52c-7,3 1,2 -8,2 0,0 -14,-2 -15,-2 15,-26 2,-31 0,-34 17,-9 26,-19 46,-24 -28,43 -16,2 -21,50 0,7 0,3 -2,8zm-34 -58l5 0 -4 7 -1 -7zm23 -23l1 2c0,0 -2,-1 -1,-2zm-37 12c10,4 5,-4 14,11l-10 19 -10 -18c-1,-1 -2,-3 -3,-4 -9,9 -11,-14 -6,16l15 23c19,9 11,3 22,20 13,41 22,33 41,67 117,-22 20,-147 -15,-154l-38 11c-7,5 -6,5 -10,9z"/>
  <path class="fil0" d="M1533 1414l2 1c0,0 -2,-1 -2,-1zm23 69c-45,-12 -21,-75 35,-75 0,-23 -2,-14 5,-29 -94,0 -122,103 -62,143 63,42 150,-40 114,-114 -43,11 -9,34 -30,67 -15,24 -44,32 -62,8z"/>
  <path class="fil0" d="M692 428c18,8 57,-24 116,-39 149,-40 333,-33 466,45 26,16 54,39 75,40 -7,-24 -23,-26 -60,-49 -82,-50 -256,-91 -352,-74 -31,6 -70,3 -97,12l-90 31c-12,7 -3,4 -9,6 -13,6 3,-3 -17,3 0,0 -19,9 -19,9 -11,7 -9,3 -13,16z"/>
  <path class="fil0" d="M807 203l2 2c-1,0 -3,-1 -2,-2zm-64 29c0,21 -12,93 61,106 60,11 122,-65 78,-65 -16,0 -16,8 -24,16 0,1 -1,3 -2,4 -1,0 -2,2 -3,2 -18,17 -5,12 -52,12 -26,-39 -44,-86 29,-86 14,0 40,34 52,-12 -22,-6 -39,-32 -98,-6 -22,10 -23,18 -41,29z"/>
  <path class="fil0" d="M1303 1587c2,27 15,44 27,65 8,16 27,48 30,61 22,-1 27,-8 41,-17 -7,-9 -24,-32 -24,-46 0,-28 83,-15 47,-69 -23,12 -44,33 -70,40l-11 -23c8,-6 75,-41 75,-52 0,-52 -69,30 -115,41z"/>
  <path class="fil0" d="M501 336c7,24 78,109 87,115l22 -18c-8,-17 -17,-29 -28,-45 39,-27 4,-9 58,-35 0,-55 -26,-21 -75,12 -8,-12 -11,-16 -17,-29l86 -46 -6 -23c-19,1 -22,5 -35,11 -23,12 -71,52 -92,58z"/>
  <path class="fil1" d="M836 945c1,5 2,1 1,10 -4,14 -3,5 -8,12 -6,-25 -5,-15 7,-22zm-30 -4c6,15 21,41 29,52 11,17 23,28 34,48 17,33 45,82 65,93 14,-4 17,-6 28,-13 -6,-17 -15,-39 -25,-50 -19,-22 -18,-26 -32,-50 -17,-31 -39,-63 -64,-98 -21,4 -24,5 -35,18z"/>
  <path class="fil1" d="M1048 789c5,24 110,187 122,198 18,-3 22,-7 33,-17l-58 -96c-9,-13 -9,-12 -16,-24l-32 -49c-5,-9 -10,-18 -13,-26l-36 14z"/>
  <path class="fil0" d="M380 463l0 5 -6 -4 6 -1zm0 0l0 -6 7 5 -7 1zm-69 98c31,0 17,-37 52,-46 6,21 0,7 16,18l71 51c18,-13 12,-10 23,-29l-93 -69c16,-29 25,-29 41,-52 -10,-15 -6,-15 -29,-17 -10,38 -135,144 -81,144z"/>
  <path class="fil0" d="M369 924c0,-52 23,-121 38,-164 17,-50 46,-95 72,-135 40,-59 120,-135 186,-172 18,-10 19,-7 21,-31 -14,8 -18,10 -32,20 -58,39 -49,26 -96,77l-9 5c-53,31 -141,181 -159,236 -15,45 -29,84 -33,129 -3,33 -11,29 12,35z"/>
  <path class="fil0" d="M1158 1650l2 2c0,0 -2,-1 -2,-2zm-103 29c27,13 34,0 63,0l23 115c23,-2 15,-5 41,-6 -4,-43 -28,-83 -29,-121 17,-4 33,-10 52,-11 -1,-47 -9,-22 -118,-3 -27,5 -30,-3 -32,26z"/>
  <path class="fil0" d="M963 1615l126 -5c-7,-28 -6,-16 -57,-11 -23,2 -7,1 -29,0 -71,-6 -96,6 -187,-22l-183 -87c-14,-10 -14,-11 -34,-13 13,48 238,138 364,138z"/>
  <path class="fil0" d="M1464 1373c22,11 29,-6 61,-60 36,-58 60,-120 77,-187 12,-47 16,-65 12,-110l-12 0c0,25 -3,35 -6,58l-38 140c-15,37 -24,53 -42,84 -28,46 -30,43 -52,75z"/>
  <path class="fil0" d="M1234 1611c0,26 39,119 51,137 12,-6 21,-8 35,-12 0,-49 1,1 -24,-68 -8,-22 -22,-39 -28,-64l-34 7z"/>
  <path class="fil0" d="M657 244c6,12 7,19 13,33 51,100 35,105 79,82l-52 -133c-14,7 -26,10 -40,18z"/>
  <path class="fil0" d="M1913 785c0,-13 10,-2 4,0 0,1 -4,17 -4,0zm-23 -28c0,-14 10,-3 4,0 0,0 -4,16 -4,0zm23 -18l12 0 0 18c-22,-16 -2,0 -12,-18zm-23 -17l2 2c0,0 -2,-1 -2,-2zm-5 -17l1 1c0,0 -2,-1 -1,-1zm23 -12l-12 -6c-1,1 -2,1 -3,3l-31 21c6,29 22,64 23,98 18,1 11,-1 23,5 8,-23 0,-1 19,-21 20,-22 -13,-10 15,-19 -11,-23 3,-13 -14,-43 -9,-15 -16,-22 -20,-38z"/>
  <path class="fil0" d="M1429 1500l93 104c21,0 29,-20 34,-29 -14,-5 -4,0 -13,-10l-34 -35c-15,-14 -40,-34 -45,-53 -22,6 -17,11 -35,23z"/>
  <path class="fil0" d="M432 388c34,50 20,17 57,64 5,7 8,9 14,15 11,11 15,16 27,25l25 -22 -33 -40c-23,-26 -36,-48 -61,-65 -12,8 -20,11 -29,23z"/>
  <path class="fil0" d="M1095 1592c12,17 16,16 71,-3 30,-10 48,-17 77,-28 15,-6 17,-7 28,-17 16,-14 21,-9 66,-38 28,-18 8,3 23,-29 -20,5 -13,6 -29,17 -9,7 -18,12 -28,18 -38,22 -88,46 -131,60 -25,7 -58,11 -77,20z"/>
  <path class="fil0" d="M576 1177c0,-13 10,-2 4,0 0,0 -4,17 -4,0zm18 -28l5 0 -4 6 -1 -6zm0 0l-6 0 5 -7 1 7zm30 11c-13,-8 -6,0 -16,-14 -10,-15 -5,-5 -9,-21 -22,-1 -48,14 -62,28 7,25 13,30 28,47 18,-4 47,-19 59,-40z"/>
  <path class="fil0" d="M686 1460l2 2c-1,-1 -3,-2 -2,-2zm-58 0c10,13 27,21 43,32 21,15 29,28 44,8 -31,-11 -12,-7 -12,-63 -34,-9 -13,-10 -75,23z"/>
  <path class="fil0" d="M58 1339l-6 0 5 -7 1 7zm5 -23l0 -6 7 5 -7 1zm0 0c-1,1 -2,1 -3,2l-14 9c-2,-30 6,-10 -11,-17 1,17 3,26 23,40l0 -11c4,7 3,-2 3,11 1,16 -11,13 14,29l9 -25c1,-1 2,-3 2,-4 -1,-1 -2,-3 -3,-2 0,1 -3,-2 -3,-3 -27,-27 12,23 -6,-5 -8,-12 -3,0 -5,-19l12 0c-6,-20 -6,-21 -29,-23l0 18 11 0z"/>
  <path class="fil0" d="M1620 1010c0,-25 2,-54 -3,-78 -2,-13 -5,-22 -5,-30 -1,-21 1,-10 -4,-30l-6 116c1,22 -1,17 18,22z"/>
  <path class="fil0" d="M352 947c0,52 -5,78 5,121l7 -91c3,-44 -5,-5 5,-47 -13,3 -17,1 -17,17z"/>
  <path class="fil0" d="M1406 716l6 0 -5 7 -1 -7zm9 18c5,-12 1,-9 12,-12 -1,-1 -7,-8 -7,-8 -13,-12 -1,-3 -14,-11l0 13 -11 -6 -1 -17c-6,-17 -2,-12 -18,-22l17 74c18,-3 13,1 22,-11z"/>
  <path class="fil0" d="M1456 584l17 -2c5,34 -11,31 25,25 -5,-28 -15,2 -19,-38 -21,2 -18,-1 -23,15z"/>
  <path class="fil0" d="M1418 1431l17 0c11,-17 12,-8 17,-29 -23,2 -29,9 -34,29z"/>
  <path class="fil0" d="M1418 1431c-21,11 -22,9 -35,29 13,6 9,11 21,-2 5,-5 12,-20 14,-27z"/>
  <path class="fil0" d="M392 1650c-8,-23 -9,-2 -12,-29l-17 0c5,19 10,24 29,29z"/>
  <path class="fil0" d="M1530 622c-11,-17 -3,-11 -22,-20 -1,1 -4,5 -4,6 -1,8 -1,1 0,12 9,3 -8,8 26,2z"/>
  <path class="fil0" d="M1188 739l27 -22c-24,-2 -32,-6 -27,22z"/>
  <path class="fil0" d="M725 1010c25,9 16,6 32,-18 -4,2 -17,7 -18,8 -12,6 -10,5 -14,10z"/>
  <path class="fil0" d="M1527 1690c21,-5 16,0 18,-23 -25,13 -15,-4 -18,23z"/>
  <path class="fil0" d="M1756 426c-5,-21 -7,-12 -21,-18 10,29 -5,20 21,18z"/>
  <path class="fil0" d="M1631 1690c-9,-22 13,-15 -17,-23l6 23 11 0z"/>
  <path class="fil0" d="M479 1400c21,-10 13,7 21,-26 -16,9 -13,9 -21,26z"/>
  <polygon class="fil0" points="398,1667 409,1667 409,1650 398,1650 "/>
  <path class="fil0" d="M317 1172l0 -12c-3,0 -9,0 -11,0 -10,3 -7,2 -12,6l23 6z"/>
  <path class="fil0" d="M829 967c5,-7 4,2 8,-12 1,-9 0,-5 -1,-10 -12,7 -13,-3 -7,22z"/>
  <polygon class="fil0" points="588,1742 599,1742 599,1731 588,1731 "/>
  <path class="fil0" d="M1007 1081c22,-4 11,6 18,-12 -30,8 -7,-2 -18,12z"/>
  <path class="fil0" d="M1678 417c0,1 -19,5 9,11 -5,-21 -3,-13 -9,-11z"/>
  <polygon class="fil0" points="1591,1638 1596,1638 1596,1621 1591,1621 "/>
  <path class="fil0" d="M1346 664c7,3 -7,13 12,0 -21,-20 -8,-2 -12,0z"/>
  <path class="fil0" d="M104 1339c-9,-13 -1,-8 -18,-12 9,13 1,8 18,12z"/>
  <path class="fil0" d="M1908 693l5 0c8,-17 11,-6 -5,-11l0 11z"/>
  <path class="fil0" d="M770 1118c-2,-17 5,-3 -10,-13 7,19 -4,10 10,13z"/>
  <path class="fil0" d="M709 1477c6,6 21,-8 7,-3 0,0 -17,-7 -7,3z"/>
  <path class="fil0" d="M1614 1667l6 -11c-8,3 -5,-4 -8,3 -3,11 -3,1 2,8z"/>
  <path class="fil0" d="M513 1679c0,13 9,2 4,0 0,0 -4,-17 -4,0z"/>
  <path class="fil0" d="M340 987c0,14 9,3 4,0 0,0 -4,-16 -4,0z"/>
  <path class="fil0" d="M1562 1696c0,14 9,2 4,0 0,0 -4,-16 -4,0z"/>
  <path class="fil0" d="M1660 1517c0,14 9,3 4,0 0,0 -4,-16 -4,0z"/>
  <path class="fil0" d="M1451 1395c16,-3 8,4 13,-10l-13 10z"/>
  <path class="fil0" d="M1313 1426c-3,-16 3,-7 -10,-12l10 12z"/>
  <path class="fil0" d="M1601 1697c-3,-16 3,-7 -10,-12l10 12z"/>
  <path class="fil0" d="M1435 1350c4,14 -2,8 12,12l-12 -12z"/>
  <path class="fil0" d="M1366 1477l13 -10c-30,6 -4,0 -13,10z"/>
  <polygon class="fil0" points="548,1079 542,1079 547,1086 "/>
  <polygon class="fil0" points="340,1154 334,1154 339,1161 "/>
  <polygon class="fil0" points="1913,693 1913,699 1920,694 "/>
  <polygon class="fil0" points="1677,1419 1671,1419 1676,1426 "/>
  <polygon class="fil0" points="548,1056 548,1051 541,1055 "/>
  <polygon class="fil0" points="248,1033 248,1028 241,1032 "/>
  <polygon class="fil0" points="1556,1483 1562,1483 1557,1476 "/>
  <polygon class="fil0" points="490,1494 496,1494 491,1488 "/>
  <polygon class="fil0" points="1608,1621 1602,1621 1607,1628 "/>
  <polygon class="fil0" points="1435,1350 1435,1345 1428,1349 "/>
  <polygon class="fil0" points="1821,1004 1821,1010 1828,1005 "/>
  <polygon class="fil0" points="1522,1736 1522,1731 1515,1735 "/>
  <polygon class="fil0" points="588,1074 582,1074 582,1079 "/>
  <path class="fil0" d="M334 1062c1,1 2,-2 2,-2l0 0c0,1 -2,2 -2,2z"/>
  <path class="fil0" d="M311 1149c1,0 2,-3 2,-2l0 0c0,0 -2,1 -2,2z"/>
  <path class="fil0" d="M265 1235c1,1 2,-3 2,-2l0 0c0,0 -2,1 -2,2z"/>
  <path class="fil0" d="M311 1402c1,1 2,-2 2,-2l0 0c0,1 -2,2 -2,2z"/>
  <path class="fil0" d="M1320 1408l2 -2c-1,0 -3,1 -2,2z"/>
  <path class="fil0" d="M415 1108l2 -1c0,0 -3,1 -2,1z"/>
  <path class="fil0" d="M1596 1575l2 -2c0,0 -2,1 -2,2z"/>
  <path class="fil0" d="M1412 1316l2 -2c0,0 -3,1 -2,2z"/>
  <path class="fil0" d="M790 278l1 -1c0,0 -2,1 -1,1z"/>
  <path class="fil0" d="M1545 595l1 -1c0,0 -2,1 -1,1z"/>
  <path class="fil0" d="M1516 1702l2 -2c-1,0 -3,1 -2,2z"/>
  <polygon class="fil0" points="265,1443 271,1431 "/>
  <polygon class="fil0" points="1573,820 1573,814 "/>
  <polygon class="fil0" points="386,1149 392,1137 "/>
  <polygon class="fil0" points="86,1327 81,1321 "/>
  <polygon class="fil0" points="599,1621 603,1634 "/>
  <polygon class="fil0" points="548,1016 542,1016 "/>
  <polygon class="fil0" points="1931,814 1928,802 "/>
 </g>
</svg>
