<?xml version="1.0" encoding="UTF-8"?>
<!DOCTYPE svg PUBLIC "-//W3C//DTD SVG 1.1//EN" "http://www.w3.org/Graphics/SVG/1.1/DTD/svg11.dtd">
<!-- Creator: CorelDRAW 2019 (64 Bit) -->
<svg xmlns="http://www.w3.org/2000/svg" xml:space="preserve" width="8.75in" height="8.75in" version="1.1" style="shape-rendering:geometricPrecision; text-rendering:geometricPrecision; image-rendering:optimizeQuality; fill-rule:evenodd; clip-rule:evenodd"
viewBox="0 0 1730.74 1730.74"
 xmlns:xlink="http://www.w3.org/1999/xlink">
 <defs>
  <style type="text/css">
   <![CDATA[
    .str0 {stroke:#145D99;stroke-width:68.68;stroke-miterlimit:2.61313}
    .str1 {stroke:#FEFEFE;stroke-width:5.49;stroke-miterlimit:2.61313}
    .str2 {stroke:#165E99;stroke-width:1.37;stroke-miterlimit:2.61313}
    .fil0 {fill:none}
    .fil1 {fill:#165E99}
    .fil2 {fill:#427CAC}
   ]]>
  </style>
 </defs>
 <g id="Camada_x0020_1">
  <metadata id="CorelCorpID_0Corel-Layer"/>
  <path class="fil0 str0" d="M1696.4 865.37c0,-458.96 -372.06,-831.03 -831.03,-831.03 -458.96,0 -831.03,372.06 -831.03,831.03 0,458.96 372.06,831.03 831.03,831.03 458.96,0 831.03,-372.06 831.03,-831.03z"/>
  <rect class="fil1" transform="matrix(3.88026 -2.8096 1.97824 2.73209 571.181 397.416)" width="6.22" height="53.13"/>
  <circle class="fil1 str1" transform="matrix(2.26583 -1.64063 1.64063 2.26583 583.252 385.583)" r="22.32"/>
  <rect class="fil1" transform="matrix(4.30064 2.11062 -1.48609 3.02808 1051.26 311.786)" width="6.22" height="53.13"/>
  <circle class="fil1 str1" transform="matrix(2.5113 1.23247 -1.23247 2.5113 1067.37 316.902)" r="22.32"/>
  <rect class="fil1" transform="matrix(1.41358 4.57734 -3.2229 0.995304 1400.22 648.524)" width="6.22" height="53.13"/>
  <circle class="fil1 str1" transform="matrix(0.825444 2.67288 -2.67288 0.825444 1407.55 663.757)" r="22.32"/>
  <rect class="fil1" transform="matrix(-2.31452 4.19443 -2.9533 -1.62965 1363.01 1094.28)" width="6.22" height="53.13"/>
  <circle class="fil1 str1" transform="matrix(-1.35154 2.44928 -2.44928 -1.35154 1357.12 1110.13)" r="22.32"/>
  <rect class="fil1" transform="matrix(-4.62616 1.24456 -0.876292 -3.25728 1034.05 1418.14)" width="6.22" height="53.13"/>
  <circle class="fil1 str1" transform="matrix(-2.70138 0.726742 -0.726742 -2.70138 1018.56 1424.9)" r="22.32"/>
  <rect class="fil1" transform="matrix(-4.10661 -2.46698 1.737 -2.89147 591.765 1352.5)" width="6.22" height="53.13"/>
  <circle class="fil1 str1" transform="matrix(-2.398 -1.44056 1.44056 -2.398 576.145 1346.04)" r="22.32"/>
  <rect class="fil1" transform="matrix(-1.07385 -4.66874 3.28726 -0.756097 340.193 1094.07)" width="6.22" height="53.13"/>
  <circle class="fil1 str1" transform="matrix(-0.62706 -2.72625 2.72625 -0.62706 334.004 1078.34)" r="22.32"/>
  <rect class="fil1" transform="matrix(2.6161 -4.01326 2.82574 1.842 344.115 716.915)" width="6.22" height="53.13"/>
  <path class="fil1 str2" d="M916.55 445c248.3,0 365.36,169.26 344.91,429.02 -20.45,259.75 -156.91,415.13 -405.21,415.13 -248.3,0 -423.33,-128.59 -402.88,-388.35 20.45,-259.75 214.89,-455.8 463.18,-455.8z"/>
  <circle class="fil1 str1" transform="matrix(1.52764 -2.34349 2.34349 1.52764 351.146 701.543)" r="22.32"/>
  <ellipse class="fil2" cx="763.49" cy="1152.9" rx="53.56" ry="62.25"/>
  <ellipse class="fil2" cx="706.32" cy="945.63" rx="53.56" ry="62.25"/>
  <ellipse class="fil2" cx="648.74" cy="810.49" rx="53.56" ry="62.25"/>
  <ellipse class="fil2" cx="707.45" cy="707.47" rx="44.42" ry="51.63"/>
  <ellipse class="fil2" cx="803.39" cy="768.99" rx="35.28" ry="41.01"/>
  <ellipse class="fil2" cx="664.37" cy="1077.97" rx="53.56" ry="62.25"/>
  <ellipse class="fil2" cx="871.86" cy="1231.29" rx="52.79" ry="44.63"/>
  <ellipse class="fil2" cx="1049.38" cy="1166.73" rx="52.79" ry="61.35"/>
  <ellipse class="fil2" cx="1043.61" cy="1033.01" rx="52.79" ry="61.35"/>
  <ellipse class="fil2" cx="1170.42" cy="928.11" rx="52.79" ry="61.35"/>
  <ellipse class="fil2" cx="1130.07" cy="609.95" rx="52.79" ry="61.35"/>
  <ellipse class="fil2" cx="1005.58" cy="536.17" rx="52.79" ry="61.35"/>
  <ellipse class="fil2" cx="523.73" cy="878.54" rx="52.79" ry="61.35"/>
  <ellipse class="fil2" cx="936.96" cy="1109.33" rx="47.61" ry="55.33"/>
  <ellipse class="fil2" cx="885.69" cy="520.03" rx="47.61" ry="55.33"/>
  <ellipse class="fil2" cx="897.22" cy="921.2" rx="47.61" ry="55.33"/>
  <ellipse class="fil2" cx="882.75" cy="809.29" rx="32.25" ry="37.48"/>
  <ellipse class="fil2" cx="572.15" cy="692.95" rx="32.25" ry="37.48"/>
  <ellipse class="fil2" cx="808.46" cy="894.68" rx="32.25" ry="37.48"/>
  <ellipse class="fil2" cx="565.23" cy="1051.46" rx="32.25" ry="37.48"/>
  <ellipse class="fil2" cx="987.14" cy="944.25" rx="32.25" ry="37.48"/>
  <ellipse class="fil2" cx="941.72" cy="1011.07" rx="32.25" ry="37.48"/>
  <ellipse class="fil2" cx="869.1" cy="1024.9" rx="32.25" ry="37.48"/>
  <ellipse class="fil2" cx="960.16" cy="837" rx="32.25" ry="37.48"/>
  <ellipse class="fil2" cx="1086.97" cy="709.04" rx="32.25" ry="37.48"/>
  <ellipse class="fil2" cx="601.43" cy="982.13" rx="32.25" ry="28.65"/>
  <ellipse class="fil2" transform="matrix(1.37262 -1.60901 1.23015 1.04942 613.416 909.672)" rx="15.25" ry="17.72"/>
  <ellipse class="fil2" transform="matrix(-0.333254 -2.08852 1.59676 -0.254786 752.67 1049.33)" rx="15.25" ry="17.72"/>
  <ellipse class="fil2" transform="matrix(-0.333254 -2.08852 1.59676 -0.254786 802.235 986.859)" rx="15.25" ry="17.72"/>
  <ellipse class="fil2" transform="matrix(-0.333254 -2.08852 1.59676 -0.254786 752.666 835.844)" rx="15.25" ry="17.72"/>
  <ellipse class="fil2" transform="matrix(-1.80519 -1.10194 0.842478 -1.38014 844.428 1101.26)" rx="15.25" ry="17.72"/>
  <ellipse class="fil2" transform="matrix(-2.00992 0.658182 -0.503206 -1.53667 664.734 1187.26)" rx="15.25" ry="17.72"/>
  <ellipse class="fil2" transform="matrix(0.643664 2.01462 -1.54026 0.492107 584.827 1142.53)" rx="15.25" ry="17.72"/>
  <ellipse class="fil2" transform="matrix(1.19746 -1.74329 1.74329 1.19746 515.43 980.911)" rx="15.25" ry="17.72"/>
  <ellipse class="fil2" cx="553.01" cy="775.95" rx="32.25" ry="37.48"/>
  <ellipse class="fil2" cx="1075.91" cy="924.66" rx="32.25" ry="37.48"/>
  <ellipse class="fil2" cx="1137" cy="1034.17" rx="32.25" ry="37.48"/>
  <ellipse class="fil2" cx="965.24" cy="1210.54" rx="32.25" ry="37.48"/>
  <ellipse class="fil2" cx="1207.32" cy="802.46" rx="32.25" ry="37.48"/>
  <ellipse class="fil2" cx="1171.59" cy="704.48" rx="32.25" ry="37.48"/>
  <ellipse class="fil2" cx="870.71" cy="710.24" rx="32.25" ry="37.48"/>
  <ellipse class="fil2" cx="840.14" cy="633.47" rx="32.25" ry="37.48"/>
  <ellipse class="fil2" cx="791.17" cy="552.31" rx="38.24" ry="44.44"/>
  <ellipse class="fil2" cx="796.47" cy="695.21" rx="16.88" ry="19.62"/>
  <ellipse class="fil2" cx="1040.17" cy="624.94" rx="16.88" ry="19.62"/>
  <ellipse class="fil2" cx="597.51" cy="621.48" rx="16.88" ry="19.62"/>
  <ellipse class="fil2" cx="763.04" cy="635.26" rx="16.88" ry="19.62"/>
  <ellipse class="fil2" cx="1151.28" cy="839.53" rx="16.88" ry="19.62"/>
  <ellipse class="fil2" cx="1138.84" cy="774.75" rx="16.88" ry="19.62"/>
  <ellipse class="fil2" cx="1126.63" cy="1119.47" rx="16.88" ry="19.62"/>
  <ellipse class="fil2" cx="870.71" cy="1158.67" rx="16.88" ry="19.62"/>
  <ellipse class="fil2" cx="927.19" cy="633.01" rx="47.61" ry="55.33"/>
  <ellipse class="fil2" cx="997.05" cy="728.64" rx="47.61" ry="55.33"/>
  <ellipse class="fil2" cx="1066.92" cy="824.27" rx="47.61" ry="55.33"/>
  <ellipse class="fil2" transform="matrix(2.95963 0.996266 -0.996266 2.95963 679.344 592.658)" rx="15.25" ry="17.72"/>
 </g>
</svg>
