<?xml version="1.0" encoding="UTF-8"?>
<!DOCTYPE svg PUBLIC "-//W3C//DTD SVG 1.1//EN" "http://www.w3.org/Graphics/SVG/1.1/DTD/svg11.dtd">
<!-- Creator: CorelDRAW X8 -->
<svg xmlns="http://www.w3.org/2000/svg" xml:space="preserve" width="8.74983in" height="8.74983in" version="1.1" style="shape-rendering:geometricPrecision; text-rendering:geometricPrecision; image-rendering:optimizeQuality; fill-rule:evenodd; clip-rule:evenodd"
viewBox="0 0 6347 6347"
 xmlns:xlink="http://www.w3.org/1999/xlink">
 <defs>
  <style type="text/css">
   <![CDATA[
    .str0 {stroke:#145D99;stroke-width:251.868}
    .str1 {stroke:#145D99;stroke-width:2.17615}
    .fil0 {fill:none}
    .fil1 {fill:#145D99}
   ]]>
  </style>
 </defs>
 <g id="Camada_x0020_1">
  <metadata id="CorelCorpID_0Corel-Layer"/>
  <circle class="fil0 str0" transform="matrix(0.983415 -0.181368 0.181368 0.983415 3173.49 3173.49)" r="3048"/>
  <path class="fil1" d="M1668 4010c85,-18 238,-81 325,-115 156,-59 156,-43 260,-146 62,-61 124,-122 190,-185 47,-45 44,-60 111,-40 41,13 81,15 119,37 11,67 10,165 18,238 8,76 40,187 43,251 -66,24 -255,-26 -314,-5 70,328 159,666 233,988 25,111 31,136 32,242 1,74 2,143 3,216 1,75 -1,398 19,444l108 -8c10,-52 -8,-767 -20,-821 -71,-309 -157,-617 -218,-930 30,-8 170,4 195,12 111,369 283,700 490,994 122,173 467,625 669,562 202,-63 229,-629 233,-841 6,-345 -41,-736 -156,-1098 16,-21 127,-111 153,-119 126,290 227,631 344,892 42,93 160,251 221,344 72,111 147,235 223,342 35,-5 72,-34 98,-56 -8,-43 -295,-466 -357,-560 -125,-187 -371,-903 -473,-1160 -59,17 -203,177 -259,181 -89,-242 -161,-302 -224,-436 19,-37 60,-77 82,-104 43,-51 55,-33 117,-23 86,15 167,28 261,46 132,25 148,9 298,-30 85,-21 254,-55 326,-88l-37 -111c-76,19 -454,128 -515,118l-406 -71c-112,-22 -88,56 -202,156 -29,-25 -50,-71 -83,-87 -90,127 -198,233 -391,292 -210,65 -329,30 -488,-18l-8 19c-1,2 -1,5 -2,7l-10 86c-33,3 -103,-21 -137,-30 -75,-22 -62,-35 -122,25 -71,71 -131,127 -199,193 -105,103 -91,105 -251,163 -113,40 -221,80 -336,122l37 112z"/>
  <path class="fil1" d="M2871 2661c-106,53 -177,112 -225,191 -184,303 243,509 599,325 155,-81 376,-296 207,-475 -119,-126 -360,-150 -581,-41z"/>
  <path class="fil1 str1" d="M3111 2471l116 1 84 -325c123,-408 344,-833 580,-1179 137,-199 241,-339 402,-531 39,-46 204,-215 226,-257l-78 -82c-215,177 -702,837 -838,1093 -131,248 -189,332 -302,612 -41,103 -200,554 -190,668z"/>
  <path class="fil1" d="M1940 1963l-375 -52c315,138 703,382 971,621 43,39 88,88 126,114l96 -64c-50,-93 -432,-376 -530,-441 -101,-68 -189,-119 -288,-178 -251,-150 -660,-318 -943,-412 -99,-33 -186,-60 -285,-87 7,42 -1,85 -23,122 350,100 534,175 876,325l375 52z"/>
  <path class="fil1" d="M3542 2609c32,-85 1,-55 87,-113 33,-22 114,-71 137,-94 23,-24 126,-243 129,-265 -28,-14 -71,-46 -104,-46 -92,142 -50,186 -191,278 -42,27 -233,118 -130,192 36,26 47,41 72,48z"/>
  <path class="fil1" d="M1923 2748c15,18 215,135 249,144 42,11 116,2 166,1 109,0 64,-10 142,44 15,-18 11,-21 20,-50 10,-34 69,-119 -104,-116 -52,2 -114,5 -162,3 -65,-2 -187,-95 -252,-123 -26,18 -46,72 -59,97z"/>
 </g>
</svg>
