<?xml version="1.0" encoding="UTF-8"?>
<!DOCTYPE svg PUBLIC "-//W3C//DTD SVG 1.1//EN" "http://www.w3.org/Graphics/SVG/1.1/DTD/svg11.dtd">
<!-- Creator: CorelDRAW X8 -->
<svg xmlns="http://www.w3.org/2000/svg" xml:space="preserve" width="840px" height="840px" version="1.1" style="shape-rendering:geometricPrecision; text-rendering:geometricPrecision; image-rendering:optimizeQuality; fill-rule:evenodd; clip-rule:evenodd"
viewBox="0 0 756 756"
 xmlns:xlink="http://www.w3.org/1999/xlink">
 <defs>
  <style type="text/css">
   <![CDATA[
    .str0 {stroke:#145D99;stroke-width:29.9998}
    .fil0 {fill:none}
    .fil1 {fill:#145D99}
   ]]>
  </style>
 </defs>
 <g id="Camada_x0020_1">
  <metadata id="CorelCorpID_0Corel-Layer"/>
  <circle class="fil0 str0" cx="378" cy="378" r="363"/>
  <g id="_2215248312272">
   <path class="fil1" d="M534 326c3,-15 5,-25 4,-41 26,6 77,27 94,41l-98 0zm-379 128l0 22c23,5 54,-16 68,-37 18,-25 13,-60 13,-95 0,-47 -4,-95 26,-133 25,-33 56,-55 102,-59 35,-3 62,7 87,22 23,14 38,34 50,57 8,16 24,82 7,91 -9,4 -13,3 -30,15 -11,7 -18,14 -26,25 -11,15 -27,48 -28,74 -2,66 0,136 0,203l23 0 0 -190c0,-35 13,-67 38,-88 18,-16 25,-12 52,-12 43,0 86,0 129,0 0,-20 -2,-29 -23,-44 -35,-26 -67,-31 -103,-44 -7,-2 -5,-2 -7,-9 -2,-9 -5,-18 -8,-26 -24,-53 -84,-105 -168,-96 -17,1 -36,7 -50,14 -19,9 -44,26 -56,42 -4,6 -10,13 -13,20 -33,55 -25,104 -25,174 0,32 -4,53 -31,67 -12,6 -15,4 -27,7z"/>
   <path class="fil1" d="M409 257c-9,20 -41,10 -32,-14 8,-20 41,-7 32,14zm-23 -46c-20,4 -38,21 -33,48 10,51 89,37 80,-16 -3,-19 -23,-37 -47,-32z"/>
  </g>
 </g>
</svg>
