<?xml version="1.0" encoding="UTF-8"?>
<!DOCTYPE svg PUBLIC "-//W3C//DTD SVG 1.1//EN" "http://www.w3.org/Graphics/SVG/1.1/DTD/svg11.dtd">
<!-- Creator: CorelDRAW X8 -->
<svg xmlns="http://www.w3.org/2000/svg" xml:space="preserve" width="8.75in" height="8.75in" version="1.1" style="shape-rendering:geometricPrecision; text-rendering:geometricPrecision; image-rendering:optimizeQuality; fill-rule:evenodd; clip-rule:evenodd"
viewBox="0 0 7966 7966"
 xmlns:xlink="http://www.w3.org/1999/xlink">
 <defs>
  <style type="text/css">
   <![CDATA[
    .str0 {stroke:#145D99;stroke-width:316.098}
    .str1 {stroke:#145D99;stroke-width:2.7311}
    .fil0 {fill:none}
    .fil1 {fill:#145D99}
   ]]>
  </style>
 </defs>
 <g id="Camada_x0020_1">
  <metadata id="CorelCorpID_0Corel-Layer"/>
  <circle class="fil0 str0" cx="3983" cy="3983" r="3825"/>
  <g id="_2432012933344">
   <path class="fil1 str1" d="M2581 5271l-57 93c21,19 52,37 78,57l46 28 635 -949 507 241c30,-50 55,-99 81,-149 28,-51 51,-108 87,-148 32,23 55,30 83,54l-48 231c-17,26 -369,102 -416,135l327 1158c23,59 487,882 521,927l125 -73c-17,-92 -470,-784 -519,-968l-261 -937c-2,-3 0,-5 -1,-9l358 -106c15,-64 45,-278 67,-317l63 -4 103 128c-194,297 -54,751 254,1105 261,302 749,515 1044,282 428,-339 66,-1219 -544,-1509 -136,-65 -405,-129 -528,-54 -23,9 -6,20 -65,-52 -67,-83 -52,-50 -38,-137 11,-3 9,-4 21,-4 13,-2 2,-1 22,0l78 3c19,0 22,-4 39,-5 27,-1 32,8 83,5l62 0c35,-2 23,-15 58,-62l140 -263c8,1 8,1 19,4 13,4 3,1 16,6l403 210c141,73 295,152 432,224 171,89 772,674 848,705l95 -110c-43,-48 -392,-346 -463,-405 -81,-66 -154,-134 -232,-201 -131,-112 -85,-75 -229,-150l-948 -492c-29,26 -144,259 -170,309 -48,92 -38,75 -127,72 -48,-1 -116,4 -161,-3l-27 -95 294 -90 24 -13 -3 -50c-1,-2 1,-4 1,-6l-126 -489c67,-36 185,-75 263,-107l531 -216c55,-22 219,-79 262,-110l-56 -134c-22,2 -1136,448 -1184,479l134 526c-25,18 -181,62 -212,69 -65,-91 -64,-69 -47,-155 10,-49 17,-91 28,-142 33,-163 38,-149 3,-285 -82,-315 -88,-270 -92,-578l-17 -1000c0,-41 4,-102 -4,-140 -28,-6 -120,-6 -150,4 -4,74 3,154 4,232l14 939c1,65 -5,173 10,235l90 361c27,110 8,52 8,114l-36 189c-22,-10 -58,-39 -81,-63 -46,-38 -117,-73 -165,-90 -228,-85 -92,72 -272,-151 26,-81 155,-226 113,-484 -52,-316 -322,-322 -380,-356 52,-86 102,-189 147,-275 35,-67 126,-220 140,-275l-865 -491c-22,24 -66,99 -78,130 29,31 309,181 368,214 55,30 337,184 365,211 -3,27 -8,30 -22,56l-76 142c-171,323 -108,272 -263,311 -67,17 -145,47 -210,101 -67,54 -110,123 -143,190 -59,118 -5,88 -147,130 -139,40 -280,84 -420,122 -43,-64 -230,-751 -271,-809 -33,6 -114,33 -140,49l309 951 591 -174c21,56 -27,330 274,444 247,94 408,-4 496,-14 143,175 84,86 87,223 2,81 19,151 50,228 9,22 49,90 47,110 3,11 16,5 -16,6l-229 -10c-28,-9 -88,-42 -122,-58l-250 -121c-63,-30 -806,-186 -884,-202 -166,-34 -329,-76 -499,-111 -15,24 -31,116 -36,147 367,91 749,159 1115,247 100,24 182,30 283,79 88,44 178,86 270,131 120,59 117,47 280,49 236,3 197,-8 282,81 -14,28 -88,172 -111,194 -83,-29 -440,-227 -495,-235l-642 965z"/>
   <path class="fil1 str1" d="M4586 4487c-30,-12 -27,-17 -59,-57 -61,-75 -49,-46 -38,-116 2,-12 0,0 3,-14l83 2c12,1 10,1 23,2 42,3 28,-3 55,-4l159 4c16,-22 29,-43 34,-69 -35,47 -23,60 -58,62l-62 0c-51,3 -56,-6 -83,-5 -17,1 -20,5 -39,5l-78 -3c-20,-1 -9,-2 -22,0 -12,0 -10,1 -21,4 -14,87 -29,54 38,137 59,72 42,61 65,52z"/>
   <path class="fil1 str1" d="M4100 3616c23,24 59,53 81,63l36 -189c-19,44 -18,63 -19,69l-20 104c-43,-13 -34,-34 -78,-47z"/>
   <path class="fil1 str1" d="M2602 5421c-26,-20 -57,-38 -78,-57l57 -93c-25,29 -43,66 -68,92 19,21 62,52 89,58z"/>
   <path class="fil1 str1" d="M4736 3956l31 -5c7,-24 1,-38 -9,-64 0,2 -2,4 -1,6l3 50 -24 13z"/>
  </g>
 </g>
</svg>
