<?xml version="1.0" encoding="UTF-8"?>
<!DOCTYPE svg PUBLIC "-//W3C//DTD SVG 1.1//EN" "http://www.w3.org/Graphics/SVG/1.1/DTD/svg11.dtd">
<!-- Creator: CorelDRAW X8 -->
<svg xmlns="http://www.w3.org/2000/svg" xml:space="preserve" width="8.75in" height="8.75in" version="1.1" style="shape-rendering:geometricPrecision; text-rendering:geometricPrecision; image-rendering:optimizeQuality; fill-rule:evenodd; clip-rule:evenodd"
viewBox="0 0 8870 8870"
 xmlns:xlink="http://www.w3.org/1999/xlink">
 <defs>
  <style type="text/css">
   <![CDATA[
    .str0 {stroke:#145D99;stroke-width:352.001}
    .fil0 {fill:none}
    .fil1 {fill:#145D99}
   ]]>
  </style>
 </defs>
 <g id="Camada_x0020_1">
  <metadata id="CorelCorpID_0Corel-Layer"/>
  <circle class="fil0 str0" cx="4435" cy="4435" r="4259"/>
  <g id="_2432146910416">
   <g>
    <path class="fil1" d="M2727 5914c30,5 60,-1 85,-16 34,-19 60,-54 66,-96l113 -773 905 -285c2,4 4,8 7,12 49,87 111,164 183,228l-777 884c-30,34 -41,81 -28,124l248 888c20,70 94,112 164,92 11,-3 21,-8 30,-13 52,-29 79,-91 62,-151l-229 -818 555 -631c20,145 69,290 147,425 280,492 846,700 1261,464 414,-237 524,-830 243,-1322 -77,-135 -177,-251 -291,-342l825 -156 587 613c43,45 111,53 162,24 10,-5 18,-12 26,-20 54,-50 55,-135 5,-188l-637 -666c-31,-32 -77,-47 -121,-38l-1158 218c-18,-94 -53,-187 -102,-274 -2,-4 -5,-8 -7,-12l707 -634 722 297c40,16 82,12 117,-8 24,-14 45,-36 57,-65 28,-68 -5,-145 -73,-173l-800 -328c-47,-20 -101,-10 -139,24l-758 680c-29,-26 -59,-50 -90,-72l437 -1061 456 129c71,20 144,-21 164,-91 20,-71 -21,-144 -91,-165l-570 -161c-65,-19 -134,14 -160,77l-350 852c-14,-143 -60,-288 -136,-422 -125,-219 -314,-376 -518,-451l-71 -332c-15,-72 -86,-118 -158,-102 -72,15 -118,86 -102,158l48 225c-116,1 -230,29 -333,88 -103,59 -185,142 -245,241l-169 -156c-54,-50 -139,-46 -188,8 -50,54 -47,138 7,188l250 230c-39,214 -1,456 124,676 77,134 178,247 294,331l-912 -132c-66,-10 -130,32 -147,98l-151 573c-19,71 23,144 94,162 71,19 144,-23 163,-94l121 -459 1136 165c3,38 8,76 16,113l-972 307c-49,15 -84,57 -92,107l-124 856c-11,72 39,140 112,150zm1586 -2818c124,218 140,468 42,653 -20,38 -21,83 -2,121 18,39 54,66 96,73 149,26 290,133 378,286 52,92 81,192 83,291 1,61 44,113 103,127 205,48 399,202 518,411 208,365 143,795 -144,958 -288,164 -690,1 -898,-363 -120,-210 -153,-455 -90,-656 18,-58 -5,-121 -57,-153 -84,-52 -156,-128 -208,-220 -88,-153 -108,-329 -54,-470 15,-40 10,-85 -13,-121 -24,-35 -63,-58 -105,-60 -210,-9 -417,-150 -541,-368 -180,-314 -125,-684 121,-824 246,-140 592,1 771,315z"/>
   </g>
   <g>
   </g>
   <g>
   </g>
   <g>
   </g>
   <g>
   </g>
   <g>
   </g>
   <g>
   </g>
   <g>
   </g>
   <g>
   </g>
   <g>
   </g>
   <g>
   </g>
   <g>
   </g>
   <g>
   </g>
   <g>
   </g>
   <g>
   </g>
   <g>
   </g>
  </g>
 </g>
</svg>
