<?xml version="1.0" encoding="UTF-8"?>
<!DOCTYPE svg PUBLIC "-//W3C//DTD SVG 1.1//EN" "http://www.w3.org/Graphics/SVG/1.1/DTD/svg11.dtd">
<!-- Creator: CorelDRAW X8 -->
<svg xmlns="http://www.w3.org/2000/svg" xml:space="preserve" width="840px" height="840px" version="1.1" style="shape-rendering:geometricPrecision; text-rendering:geometricPrecision; image-rendering:optimizeQuality; fill-rule:evenodd; clip-rule:evenodd"
viewBox="0 0 756 756"
 xmlns:xlink="http://www.w3.org/1999/xlink"
 enable-background="new 0 0 52 52">
 <defs>
  <style type="text/css">
   <![CDATA[
    .str0 {stroke:#145D99;stroke-width:29.9998}
    .fil1 {fill:none}
    .fil0 {fill:#145D99}
   ]]>
  </style>
 </defs>
 <g id="Camada_x0020_1">
  <metadata id="CorelCorpID_0Corel-Layer"/>
  <g id="_2215248317328">
   <g>
    <path class="fil0" d="M568 257c-67,-14 -128,-49 -175,-100l-7 -7c-2,-3 -5,-4 -8,-4 -3,0 -6,1 -8,4l-11 11c-45,47 -102,80 -164,94l-7 2c-5,1 -9,5 -9,10 -3,137 74,238 120,285 27,29 63,57 79,58l0 0c17,-1 53,-31 80,-59 37,-39 122,-144 118,-284 0,-5 -4,-9 -8,-10zm-224 213l-51 -51 15 -16 38 38 141 -105 13 18 -156 116z"/>
   </g>
  </g>
  <circle class="fil1 str0" cx="378" cy="378" r="363"/>
 </g>
</svg>
