<?xml version="1.0" encoding="UTF-8"?>
<!DOCTYPE svg PUBLIC "-//W3C//DTD SVG 1.1//EN" "http://www.w3.org/Graphics/SVG/1.1/DTD/svg11.dtd">
<!-- Creator: CorelDRAW X8 -->
<svg xmlns="http://www.w3.org/2000/svg" xml:space="preserve" width="840px" height="840px" version="1.1" style="shape-rendering:geometricPrecision; text-rendering:geometricPrecision; image-rendering:optimizeQuality; fill-rule:evenodd; clip-rule:evenodd"
viewBox="0 0 756 756"
 xmlns:xlink="http://www.w3.org/1999/xlink">
 <defs>
  <style type="text/css">
   <![CDATA[
    .str0 {stroke:#145D99;stroke-width:29.9998}
    .fil0 {fill:none}
    .fil1 {fill:#145D99}
   ]]>
  </style>
 </defs>
 <g id="Camada_x0020_1">
  <metadata id="CorelCorpID_0Corel-Layer"/>
  <circle class="fil0 str0" cx="378" cy="378" r="363"/>
  <g id="_2215248340848">
   <path class="fil1" d="M233 535l-6 8 -13 0c1,-3 0,0 1,-2 1,-1 1,-1 1,-2 31,-43 41,-77 7,-118 -23,-28 -66,-42 -104,-44 -7,-1 -12,-3 -18,-4 1,-1 1,0 3,-1 5,-3 13,-3 18,-7 6,-5 7,-15 0,-19 -10,-7 -33,6 -45,7 -1,-3 -1,-3 -3,-6 6,-2 19,-11 25,-15 14,-10 38,-26 53,-28 11,-2 24,-6 34,-7 12,28 24,4 40,-13 7,-7 17,-22 23,-26 13,34 4,36 0,53 -4,14 21,29 29,-4 23,-1 34,1 56,-7 17,-6 29,-15 44,-23 34,-17 78,-9 107,7 46,26 61,76 77,122 5,14 15,37 17,50 -15,21 -45,43 -76,39 -18,-2 -35,-4 -52,-6 -17,-3 -34,-6 -50,-9 -63,-10 -84,-7 -137,28 -6,4 -12,9 -17,13 -2,3 -12,12 -14,14zm52 -256c-7,0 -5,0 -6,-7 0,-18 -23,-67 -40,-45l-26 32c-4,5 -11,4 -27,10 -11,3 -19,6 -31,7 -26,4 -35,12 -53,23 -16,11 -31,20 -47,30 -11,6 -10,13 -5,26 12,28 36,44 68,46 23,2 43,7 61,17 12,7 32,26 38,38 12,25 -12,61 -28,80 -4,5 -16,14 -13,24 3,11 16,8 29,8 44,0 28,5 54,-21 18,-18 46,-36 72,-43 31,-9 98,10 134,13 0,7 2,15 0,22 -41,2 -23,5 -66,-11 -8,-3 -22,-11 -29,-3 -3,4 -4,11 -1,16 3,5 7,4 12,7 -16,12 -5,27 10,25 115,-15 102,-7 99,-54 26,1 32,5 57,-5 23,-9 39,-25 53,-43 6,-6 11,-9 16,-16 22,-28 36,-58 27,-97 -4,-18 -12,-30 -21,-43 -14,-22 -34,-64 -29,-99 7,-41 48,-40 31,-59 -7,-8 -14,-4 -22,1 -55,35 -36,113 -7,160 4,7 9,13 12,20 14,25 18,48 5,76 -4,8 -9,14 -12,20l-4 -5c-23,-63 -35,-130 -98,-168 -29,-17 -72,-27 -111,-17 -43,11 -35,33 -102,35z"/>
   <path class="fil1" d="M165 318c-15,8 -4,28 10,22 16,-6 5,-30 -10,-22z"/>
   <path class="fil1" d="M216 539c0,1 0,1 -1,2 -1,2 0,-1 -1,2l13 0 6 -8 -4 3c-1,1 -1,2 -2,4l-11 0 0 -3z"/>
   <path class="fil1" d="M285 279l-4 -1c0,-4 1,-3 -2,-6 1,7 -1,7 6,7z"/>
  </g>
 </g>
</svg>
