<?xml version="1.0" encoding="UTF-8"?>
<!DOCTYPE svg PUBLIC "-//W3C//DTD SVG 1.1//EN" "http://www.w3.org/Graphics/SVG/1.1/DTD/svg11.dtd">
<!-- Creator: CorelDRAW X8 -->
<svg xmlns="http://www.w3.org/2000/svg" xml:space="preserve" width="840px" height="840px" version="1.1" style="shape-rendering:geometricPrecision; text-rendering:geometricPrecision; image-rendering:optimizeQuality; fill-rule:evenodd; clip-rule:evenodd"
viewBox="0 0 756 756"
 xmlns:xlink="http://www.w3.org/1999/xlink">
 <defs>
  <style type="text/css">
   <![CDATA[
    .str0 {stroke:#145D99;stroke-width:29.9998}
    .fil0 {fill:none}
    .fil1 {fill:#145D99}
   ]]>
  </style>
 </defs>
 <g id="Camada_x0020_1">
  <metadata id="CorelCorpID_0Corel-Layer"/>
  <circle class="fil0 str0" cx="378" cy="378" r="363"/>
  <g id="_2215248329008">
   <path class="fil1" d="M566 352c2,2 6,6 7,9 -4,-1 -8,-2 -13,-2 -5,-1 -10,0 -15,0 3,-3 3,-3 6,-6l15 -1zm-208 -15c-1,-1 -4,3 -1,-4 0,-1 2,-2 3,-3 0,6 0,4 -2,7zm55 -163c-11,19 -24,54 14,52 20,-2 16,0 21,10 10,-56 -35,-42 -3,-68 4,-3 7,-7 10,-11 5,-5 12,-22 16,-26 26,6 12,14 20,29 3,4 7,6 7,11 0,2 -2,2 -2,6 0,10 4,-1 -2,19 -3,10 3,17 1,30 -11,9 -18,2 -17,25 1,8 -2,8 -8,11 -7,3 -11,10 -18,14 -17,9 -22,19 -36,27 -2,1 -5,2 -7,3 -2,2 -2,9 -15,17 -3,1 -3,1 -6,2 -3,2 -2,1 -5,3 -7,2 -6,4 -10,6 -4,-11 -1,-12 -1,-22 -3,-3 -7,-6 -13,-6 -5,3 -1,2 -6,4 -9,5 -9,4 -11,17 -1,2 -3,14 -3,15 -2,3 -10,7 -13,8 0,-4 0,-8 -1,-11 -2,-12 1,-23 -15,-21 -10,17 -3,32 1,50l-5 4c-7,-9 -6,-27 -16,-35 -2,-2 -15,-17 -25,-7 -2,2 -2,12 -3,15 0,5 0,12 -1,17 -1,13 -1,6 -4,15 9,3 12,0 14,-9 1,-4 1,-6 2,-10l2 -10c0,0 1,-1 1,-1 6,1 5,3 6,10 1,9 7,23 7,24 -1,3 -1,3 -2,6 -2,12 -10,4 -15,1 -11,-5 -22,-7 -28,-13 -7,-7 -7,-3 -14,-3 -12,2 -6,3 -12,6 -5,3 -14,1 -20,2 -6,1 -9,5 -14,4 -10,-2 -8,-5 -14,4 -6,-5 -32,-2 -41,1 -9,4 -15,9 -23,15 -12,9 -11,5 -17,20 -2,6 -4,13 -7,18 -3,5 -20,20 -17,31 5,1 9,-1 12,-4 8,-7 7,0 19,-15 5,-6 2,-6 10,-10 25,-13 68,-19 71,-20 7,-4 8,-1 11,-5 4,-5 2,-8 10,-9 16,-2 18,2 32,3 8,1 17,-1 29,6 6,3 6,5 8,11 15,3 8,-1 19,-3 2,2 1,-1 2,2 1,5 -1,6 -2,11 3,-3 3,-4 8,-5 -1,5 -3,8 -1,12 3,-3 3,-4 5,-8 8,3 3,4 2,13 1,-1 1,-2 2,-3 3,-4 1,-3 5,-4 -1,6 -2,6 -4,11 5,-2 10,-6 15,-7 3,0 6,1 10,1 5,-1 4,-3 9,-4 4,3 2,2 5,6 31,1 18,24 31,27 3,1 9,-1 13,0 8,0 13,7 20,10l8 7c0,0 0,0 1,1 -7,1 -8,3 -15,3 -21,0 -35,-8 -56,1 -15,7 -26,16 -41,22 -22,11 -48,16 -71,24 -5,1 -8,3 -12,5 -5,2 -8,2 -9,7 10,6 102,6 103,9l1 3c0,2 -1,2 1,4l6 5c-4,2 -6,2 -10,3 -3,11 0,9 -13,12 -7,2 -14,3 -22,3 -16,1 -33,-4 -47,-3 2,4 4,5 8,7 11,7 18,13 32,15 35,6 59,-11 78,-12 12,0 19,1 26,-7 9,-10 4,-15 15,-22 2,-1 2,-2 4,-3 4,-3 7,-4 10,-7 7,-8 4,-10 15,-16 3,-1 7,-4 10,-5 12,-4 9,-4 17,-13 4,-5 13,-8 17,-13 3,-4 3,-7 6,-11 7,-8 7,-9 6,-22 -3,-17 -14,-10 -18,-22 -2,-7 -6,-8 -14,-8 -12,-1 -14,-5 -24,-8 5,-6 3,-7 14,-8 2,4 2,6 8,3 5,-4 2,-3 10,-6 7,-3 9,-10 16,-13 1,4 0,9 3,13 3,-2 14,-16 21,-14 10,1 20,8 31,9 -1,5 3,11 4,17 2,4 4,9 7,11l3 2 -1 7c13,8 12,20 19,27 4,3 3,0 8,3 9,6 12,12 26,11 -3,-5 -11,-9 -15,-13 -4,-3 -6,-3 -8,-7 0,-1 -1,-3 -1,-4 -1,-3 -1,-5 -2,-8l-10 -20c-2,-4 -3,-4 -4,-6 -2,-6 -2,-8 -6,-15l-8 -16c-1,-1 -1,-1 -1,-1l-3 -3c0,0 0,-1 0,-1l-2 -4c-3,-2 -8,-3 -11,-6 5,0 31,0 33,3l1 2c0,0 0,1 0,2 1,5 1,10 4,14 7,10 13,22 21,29l13 7c4,1 11,-1 15,-2 -1,-2 -8,-6 -10,-7 -6,-3 -6,1 -10,-6 -2,-3 -2,-8 -4,-13 -6,-12 -12,-23 -17,-37 -2,-5 0,-1 -3,-5 -3,-2 -3,-2 -6,-4 -4,-2 -8,-4 -12,-6 20,-1 33,-5 38,11 2,7 3,6 5,11 9,16 14,32 39,26 -2,-2 -3,-3 -6,-4 -9,-3 -9,-6 -16,-21 -3,-4 -3,-9 -5,-13l-4 -7 8 -6c-11,-4 -4,0 -11,-16 -1,-4 -1,-7 -2,-10 -2,-3 -5,-6 -6,-9 -9,-16 -10,-18 -35,-12 -11,3 -12,2 -16,11 -1,4 -27,35 -30,36l-3 0c-2,1 -3,2 -5,4l-6 -6c0,0 -1,0 -1,0 8,-11 -2,-3 12,-12 7,-5 7,-7 6,-17 12,-5 9,-18 11,-26 3,-10 9,-22 6,-30 -2,-7 -3,-15 -6,-20 4,-5 8,-10 9,-18 2,-11 -3,-15 -4,-22 -1,-8 4,-14 6,-21 3,-10 2,-14 2,-25 0,-8 1,-6 2,-11 1,-7 0,0 -1,-5 0,-3 1,-1 1,-4 1,-7 -3,-1 -2,-8 1,-11 0,-23 -6,-32 -4,-6 -3,-16 -8,-20 -5,-4 -8,-11 -13,-14 -9,-5 -22,-7 -32,-8 -7,-1 -5,0 -9,3 -4,3 -5,2 -9,6 -4,4 -2,3 -7,7 -5,3 -20,21 -24,29 -4,6 -5,13 -7,21 -2,11 -4,14 1,23z"/>
   <path class="fil1" d="M545 359c5,0 10,-1 15,0 5,0 9,1 13,2 -1,-3 -5,-7 -7,-9l-15 1c-3,3 -3,3 -6,6z"/>
   <path class="fil1" d="M358 337c2,-3 2,-1 2,-7 -1,1 -3,2 -3,3 -3,7 0,3 1,4z"/>
  </g>
 </g>
</svg>
