<?xml version="1.0" encoding="UTF-8"?>
<!DOCTYPE svg PUBLIC "-//W3C//DTD SVG 1.1//EN" "http://www.w3.org/Graphics/SVG/1.1/DTD/svg11.dtd">
<!-- Creator: CorelDRAW X8 -->
<svg xmlns="http://www.w3.org/2000/svg" xml:space="preserve" width="8.75in" height="8.75in" version="1.1" style="shape-rendering:geometricPrecision; text-rendering:geometricPrecision; image-rendering:optimizeQuality; fill-rule:evenodd; clip-rule:evenodd"
viewBox="0 0 2378 2378"
 xmlns:xlink="http://www.w3.org/1999/xlink">
 <defs>
  <style type="text/css">
   <![CDATA[
    .str0 {stroke:#145D99;stroke-width:94.3461}
    .fil0 {fill:none}
    .fil1 {fill:#145D99}
   ]]>
  </style>
 </defs>
 <g id="Camada_x0020_1">
  <metadata id="CorelCorpID_0Corel-Layer"/>
  <circle class="fil0 str0" cx="1189" cy="1189" r="1142"/>
  <g id="_2432140496640">
   <path class="fil1" d="M1931 610c-7,-15 -24,-21 -39,-14l-445 210c-11,-10 -22,-19 -35,-27 -13,-7 -27,-13 -41,-16l-40 -491c-2,-17 -16,-29 -32,-27 -17,1 -29,15 -27,32l39 481c-27,3 -56,11 -85,25 -63,32 -121,88 -162,159 -4,7 -8,15 -12,22l-67 -65c-12,-11 -30,-11 -42,1 -11,12 -11,31 1,42l84 81c-15,44 -22,88 -21,129l-80 5 -47 -27c-14,-8 -32,-3 -40,11 -9,14 -4,32 10,41l55 31c5,3 11,5 17,4l93 -6c-8,15 -70,125 -123,239 -39,84 -63,149 -74,199 -2,0 -4,0 -6,1 -64,18 -167,-5 -220,-28 -15,-6 -33,1 -39,16 -6,14 0,30 12,37 1,1 3,1 4,2 55,23 163,50 244,33 2,12 5,23 9,31l-131 228c-9,14 -4,33 10,41 15,8 33,3 41,-11l132 -228c9,0 20,-3 31,-8 26,79 103,159 151,195 1,1 2,2 3,2 13,8 29,5 39,-7 9,-14 7,-32 -6,-42 -46,-35 -118,-113 -134,-177 0,-2 -1,-4 -2,-6 37,-34 81,-87 135,-163 72,-103 137,-212 145,-226l41 83c3,6 7,10 12,13l55 32c14,8 32,3 41,-11 8,-14 3,-33 -11,-41l-47 -27 -36 -72c37,-20 72,-48 102,-82l112 32c16,4 32,-5 37,-20 4,-16 -5,-33 -21,-37l-90 -26c5,-7 10,-14 14,-21 41,-71 61,-149 56,-220 -2,-32 -9,-61 -21,-86l437 -207c15,-7 21,-24 14,-39zm-489 362c-22,-32 -54,-61 -93,-83 -40,-23 -81,-36 -119,-39 54,-34 110,-44 152,-19 42,24 62,77 60,141zm-294 -46c33,-29 107,-23 171,14 74,43 105,105 98,142 -1,1 -1,2 -1,3 -6,16 -14,32 -23,47 0,0 0,1 0,1 -19,-43 -60,-87 -116,-120 -57,-32 -115,-45 -162,-40 0,-1 0,-1 1,-1 9,-16 18,-30 29,-44 1,0 2,-1 3,-2zm-21 347c-30,-18 -49,-50 -56,-90 20,-20 66,-19 105,4 40,23 64,62 57,90 -39,13 -76,13 -106,-4zm-59 221l-103 -59c10,-21 20,-41 30,-60l110 63c-12,18 -24,37 -37,56zm-129 -5l94 54c-14,21 -28,39 -40,55l-80 -47c7,-19 16,-40 26,-62zm198 -101l-115 -66c9,-17 17,-32 24,-44 14,19 31,35 51,46 20,12 43,19 66,21 -7,12 -16,27 -26,43zm69 -252c-47,-28 -98,-33 -138,-20 2,-21 7,-43 13,-66 9,-12 29,-19 55,-19 34,0 74,13 111,34 37,21 68,50 85,79 13,23 17,43 10,57 -16,17 -33,32 -50,44 -8,-41 -39,-82 -86,-109zm-315 472l64 36c-53,59 -76,66 -81,67 -2,-5 -7,-24 11,-84 2,-6 4,-13 6,-19z"/>
   <g>
   </g>
   <g>
   </g>
   <g>
   </g>
   <g>
   </g>
   <g>
   </g>
   <g>
   </g>
   <g>
   </g>
   <g>
   </g>
   <g>
   </g>
   <g>
   </g>
   <g>
   </g>
   <g>
   </g>
   <g>
   </g>
   <g>
   </g>
   <g>
   </g>
  </g>
 </g>
</svg>
