<?xml version="1.0" encoding="UTF-8"?>
<!DOCTYPE svg PUBLIC "-//W3C//DTD SVG 1.1//EN" "http://www.w3.org/Graphics/SVG/1.1/DTD/svg11.dtd">
<!-- Creator: CorelDRAW X8 -->
<svg xmlns="http://www.w3.org/2000/svg" xml:space="preserve" width="840px" height="840px" version="1.1" style="shape-rendering:geometricPrecision; text-rendering:geometricPrecision; image-rendering:optimizeQuality; fill-rule:evenodd; clip-rule:evenodd"
viewBox="0 0 756 756"
 xmlns:xlink="http://www.w3.org/1999/xlink">
 <defs>
  <style type="text/css">
   <![CDATA[
    .str0 {stroke:#145D99;stroke-width:29.9998}
    .fil0 {fill:none}
    .fil1 {fill:#145D99}
   ]]>
  </style>
 </defs>
 <g id="Camada_x0020_1">
  <metadata id="CorelCorpID_0Corel-Layer"/>
  <circle class="fil0 str0" cx="378" cy="378" r="363"/>
  <path class="fil1" d="M170 454l-12 -41c41,0 83,-1 124,0 8,0 7,2 11,6 23,20 56,27 84,27 19,0 37,-3 54,-9 33,-14 27,-24 42,-24 41,0 82,0 123,0l-13 41c-7,-4 -24,-22 -31,-26 0,1 -1,1 -1,2 -1,1 -24,56 -27,59 -4,-5 -25,-37 -29,-40l-30 59c-6,-8 -24,-41 -30,-45l-30 54 -29 -50c-5,4 -27,46 -32,50l-29 -55 -3 3c-1,1 -1,2 -1,3l-24 37 -2 -3c-6,-8 -20,-43 -26,-53l-30 40c-2,-3 -20,-44 -24,-54l-3 -6c0,-1 -1,-1 -1,-1 -8,5 -20,20 -31,26zm486 -63c5,42 -12,74 -28,95 -16,20 -40,37 -67,52 -100,55 -269,54 -370,-1 -50,-27 -101,-71 -94,-146l22 0c-2,21 0,39 5,58 4,-3 14,-15 18,-20l20 61 25 -22c3,-3 5,-5 9,-7 3,11 18,43 25,60 2,5 3,6 5,8l30 -42 28 58 8 -11c4,-7 17,-29 22,-33 3,8 10,20 14,28 4,7 12,20 14,27 5,-3 31,-47 32,-50l31 51c3,-4 12,-22 16,-28 4,-7 11,-21 15,-27l2 2c0,0 1,0 1,0l13 21c5,7 10,17 15,23l31 -61c5,8 25,34 29,42 4,-3 1,0 4,-4l27 -64c6,3 28,24 34,29l19 -61c6,5 11,12 16,17 9,-13 10,-36 8,-55l21 0zm-291 -55c18,-2 38,0 54,6 16,5 33,15 39,26 17,36 -45,53 -69,55 -71,7 -130,-40 -74,-73 14,-8 32,-13 50,-14zm243 33l8 22 -138 0c2,-10 2,-13 0,-23l130 1zm-470 21c2,-9 4,-14 7,-21l130 0c-2,10 -1,11 0,22l-137 -1zm24 -44c4,-6 13,-13 20,-18 83,-64 224,-70 318,-37 18,6 34,13 50,22 10,6 36,23 41,33l-122 0c-6,0 -5,-3 -9,-6 -34,-30 -97,-33 -136,-18 -31,12 -32,24 -41,24 -24,2 -92,0 -121,0zm185 -126c5,-7 24,-40 29,-44 5,9 10,17 16,26 5,8 9,18 15,25 5,-3 25,-40 31,-44l28 51 32 -36 25 51c10,-6 29,-24 33,-26l23 53c9,-1 22,-14 32,-17 3,5 15,49 17,58 12,40 9,19 22,51 -26,1 -19,3 -28,-15 -19,-34 -63,-61 -93,-74 -94,-41 -211,-40 -305,0 -32,14 -75,41 -93,75 -9,18 -1,15 -28,14 11,-29 10,-9 22,-52 3,-9 15,-52 18,-57 10,4 21,14 31,17l24 -57c4,3 4,4 8,8l15 15c3,3 5,5 9,8l26 -52c3,3 4,6 7,10l21 26c4,-4 12,-20 15,-26l15 -25c5,10 20,30 27,44l6 -7zm-216 8c-5,22 -14,52 -21,75 -13,43 -18,34 -27,66 -22,72 21,131 62,162 26,20 55,36 86,46 127,45 314,29 402,-68 38,-41 64,-106 23,-173 -7,-11 -8,-19 -13,-34 -6,-21 -16,-53 -20,-75l-35 20 -25 -57c-7,4 -26,22 -34,27l-28 -55c-6,7 -26,32 -32,36 -6,-9 -25,-45 -30,-52 0,0 -1,0 -1,0 0,-1 0,-1 0,-1 -5,5 -22,34 -30,44 -6,-7 -25,-39 -32,-47 0,0 -1,0 -1,0 0,-1 0,-1 -1,-1 -6,7 -24,39 -32,50l-29 -46c-7,6 -24,45 -31,53l-22 -28c-3,-4 -4,-6 -8,-9l-27 55 -33 -33c-4,4 -24,54 -27,64l-34 -19z"/>
 </g>
</svg>
