<?xml version="1.0" encoding="UTF-8"?>
<!DOCTYPE svg PUBLIC "-//W3C//DTD SVG 1.1//EN" "http://www.w3.org/Graphics/SVG/1.1/DTD/svg11.dtd">
<!-- Creator: CorelDRAW X8 -->
<svg xmlns="http://www.w3.org/2000/svg" xml:space="preserve" width="840px" height="840px" version="1.1" style="shape-rendering:geometricPrecision; text-rendering:geometricPrecision; image-rendering:optimizeQuality; fill-rule:evenodd; clip-rule:evenodd"
viewBox="0 0 756 756"
 xmlns:xlink="http://www.w3.org/1999/xlink"
 enable-background="new 0 0 64 64">
 <defs>
  <style type="text/css">
   <![CDATA[
    .str0 {stroke:#145D99;stroke-width:29.9998}
    .fil0 {fill:none}
    .fil1 {fill:#145D99}
   ]]>
  </style>
 </defs>
 <g id="Camada_x0020_1">
  <metadata id="CorelCorpID_0Corel-Layer"/>
  <circle class="fil0 str0" cx="378" cy="378" r="363"/>
  <g id="_2215248352784">
   <g>
    <g>
     <circle class="fil1" cx="317" cy="159" r="45"/>
    </g>
    <g>
     <path class="fil1" d="M564 297c-33,-24 -64,-36 -102,-34 -57,1 -86,34 -99,45 -12,11 -25,18 -48,26 -51,14 -90,-13 -105,-25 0,0 0,0 0,0 -5,-4 -8,-6 -10,-6l-9 0c-7,0 -9,8 -9,13 0,40 0,164 0,179 2,18 5,28 22,41 16,13 36,11 36,11 0,0 266,0 281,0 14,-1 28,-5 40,-20 13,-15 12,-32 12,-32 0,0 0,-122 0,-179 0,-10 -7,-17 -9,-19zm-292 164c-21,0 -39,-17 -39,-39 0,-21 18,-39 39,-39 22,0 39,18 39,39 0,22 -17,39 -39,39zm210 40c-27,0 -49,-22 -49,-49 0,-27 22,-49 49,-49 27,0 49,22 49,49 0,27 -22,49 -49,49z"/>
    </g>
    <g>
     <path class="fil1" d="M623 227c0,-11 -6,-12 -9,-12l-8 0c-10,0 -10,11 -10,11l0 0c0,55 0,299 0,303 0,6 -1,19 -14,31 -14,11 -28,10 -28,10 0,0 -351,0 -359,-1 -6,-1 -18,-3 -28,-16 -10,-13 -8,-30 -8,-30l0 -296c0,-10 -6,-12 -9,-12l-8 0c-8,0 -10,7 -10,10 0,52 0,285 0,304 0,22 8,39 27,54 19,15 41,14 41,14 0,0 343,0 358,0 15,0 34,-7 50,-25 16,-19 15,-43 15,-43l0 -302 0 0z"/>
    </g>
   </g>
  </g>
 </g>
</svg>
