<svg width="370" height="570" xmlns="http://www.w3.org/2000/svg">
    <defs>
        <linearGradient y2="1" x2="1" y1="0" x1="0" id="svg_11">
            <stop stop-opacity="0.99609" offset="0" stop-color="#dd9bdd" />
            <stop offset="0.39453" stop-opacity="0.99219" stop-color="#fc88fc" />
            <stop offset="0.52344" stop-opacity="0.99609" stop-color="#f241f2" />
            <stop offset="1" stop-opacity="0.99609" stop-color="#3d9eff" />
        </linearGradient>
    </defs>
    <g>
        <title>Layer 1</title>
        <path id="svg_5"
            d="m177.72487,55.44971l-21.61376,-17.85714l11.85185,-2.96296l12.59259,-2.96296l17.03704,8.88889l10.37037,-5.92593l7.40741,-11.11111l8.88889,0l20.74074,3.7037l14.07407,0.74074c0,0 99.25926,65.92593 99.25926,65.92593c0,0 -12.59259,25.92593 -12.59259,25.92593c0,0 -2.22222,39.25926 -2.22222,38.51852c0,0.74074 8.88889,80.74074 8.88889,80.74074c0,0 -16.2963,51.85185 -16.2963,51.85185c0,0 -17.03704,3.7037 -17.03704,3.7037c0,0 -22.96296,22.22222 -22.96296,22.22222c0,0 -11.85185,25.92593 -11.85185,25.92593c0,0 -10.37037,40.74074 -10.37037,40.74074c0,0 -11.11111,1.48148 -11.11111,1.48148c0,0 0.74074,8.88889 0.74074,8.88889c0,0 -8.88889,17.03704 -8.88889,17.03704c0,0 -6.66667,19.25926 -6.66667,19.25926c0,0 -26.66667,31.11111 -26.66667,30.37037c0,0.74074 -21.48148,11.85185 -21.48148,11.85185c0,0 -17.77778,19.25926 -17.77778,19.25926c0,0 -10.37037,28.14815 -10.37037,28.14815c0,0 -19.25926,26.66667 -19.25926,26.66667c0,0 -4.44444,-12.59259 -4.44444,-12.59259c0,0 -47.40741,-1.48148 -47.40741,-1.48148c0,0 -44.44444,-11.85185 -44.44444,-11.85185c0,0 -17.77778,-8.88889 -17.77778,-8.88889c0,0 2.22222,-42.22222 2.22222,-42.96296c0,0.74074 -28.88889,-9.62963 -28.88889,-9.62963c0,0 14.07407,-15.55556 14.07407,-15.55556c0,0 -2.22222,-10.37037 -2.22222,-11.11111c0,0.74074 5.92593,-17.77778 5.92593,-17.77778c0,0 -7.40741,-13.33333 -7.40741,-13.33333c0,0 10.37037,-14.07407 10.37037,-14.07407c0,0 5.92593,-14.07407 5.92593,-14.07407c0,0 51.85185,0 51.85185,0c0,0 16.2963,-40.74074 16.2963,-41.48148c0,0.74074 18.51852,-20.74074 18.51852,-20.74074c0,0 7.40741,-27.40741 7.40741,-27.40741c0,0 9.62963,-9.62963 9.62963,-9.62963c0,0 0,-10.37037 0,-10.37037c0,0 17.03704,-1.48148 17.03704,-1.48148c0,0 -0.74074,-17.03704 -0.74074,-17.03704c0,0 0,-15.55556 0,-15.55556c0,0 -2.96296,-17.03704 -2.96296,-17.77778c0,0.74074 -22.96296,-15.55556 -22.96296,-15.55556c0,0 5.92593,-8.88889 5.92593,-8.88889c0,0 -30.37037,-18.51852 -30.37037,-18.51852c0,0 0,-11.11111 0,-11.11111c0,0 22.22222,1.48148 22.22222,0.74074c0,0.74074 2.96296,7.40741 2.96296,7.40741c0,0 16.2963,0 16.2963,0c0,0 8.88889,-8.14815 8.88889,-8.14815c0,0 -2.22222,-11.85185 -2.96296,-11.85185c-0.74074,0 -14.81481,-8.88889 -14.81481,-8.88889c0,0 -16.2963,-39.25926 -16.2963,-39.25926c0,0 -0.74074,-18.51852 -0.74074,-18.51852c0,0 8.14815,-5.18519 8.14815,-5.18519c0,0 2.22222,-9.62963 2.22222,-9.62963c0,0 30.37037,-8.88889 30.37037,-8.88889c0,0 15.55556,8.88889 15.55556,8.88889c4.77273,-0.5253 2.11884,-7.0977 -2.8761,-9.23677"
            opacity="100" stroke-width="2" stroke="#f28abc" fill="url(#svg_11)" />
    </g>
</svg>